<?xml version="1.0" encoding="utf-8"?>
<!-- Generator: Adobe Illustrator 21.0.0, SVG Export Plug-In . SVG Version: 6.00 Build 0)  -->
<svg version="1.1" id="Layer_1" xmlns="http://www.w3.org/2000/svg" xmlns:xlink="http://www.w3.org/1999/xlink" x="0px" y="0px"
	 viewBox="0 0 1390 800" style="enable-background:new 0 0 1390 800;" xml:space="preserve">
<style type="text/css">
	.st0{fill:#4284F3;}
	.st1{fill:#FFFFFF;}
	.st2{fill:#1A1A1A;}
	.st3{fill:#00021E;}
	.st4{fill:none;}
	.st5{fill:#FFFFFF;stroke:#000000;stroke-width:0.638;stroke-miterlimit:10;}
	.st6{opacity:0.2;}
</style>
<g transform="translate(41.584 44.512)">
	<path class="st0" d="M1348.4-44.5c-54.1,216.7-144.8,73.7-173.1,285c-9.8,72.8-61.8,48.2-100.7,83.2
		c-23.8,21.4-17.7,71.2-43.2,102.2C950.4,524.1,763,449.6,738,598.1l-150.8,1.7c-24.3-103.5-88.7-50.8-158.3-88.6
		c-44.7-33.1-38.2-75.1-60.3-108.2c-33.3-49.8-152.4-31.3-184.1-82.1c-30.5-63.3,20-126.7-63.2-173.9
		C58.1,113.9-41.6,74.5-39.6-44.5H1348.4z"/>
	<g transform="translate(3102.625 -1089.033)">
		<path class="st1" d="M-2400.8,1823.3c0,0-0.9,10.2-12.2,13.6c0,0-9.3,2.5-9.6,7.1h30.8c0,0-3.1-13.1,1.4-20.3L-2400.8,1823.3z"/>
		<path class="st2" d="M-2400.7,1823.3C-2400.7,1823.3-2400.7,1823.3-2400.7,1823.3L-2400.7,1823.3l0,0.2l0,0.2c0,0.2,0,0.3-0.1,0.5
			c-0.1,0.3-0.1,0.7-0.2,1c-0.2,0.7-0.4,1.3-0.6,1.9c-0.5,1.3-1.1,2.5-1.9,3.6c-1.6,2.2-3.7,4.1-6.2,5.3c-0.6,0.3-1.2,0.6-1.9,0.8
			c-0.6,0.2-1.3,0.4-1.9,0.6c-1.2,0.4-2.5,0.8-3.7,1.4c-1.2,0.5-2.3,1.2-3.3,2c-1,0.8-1.7,1.9-1.9,3.1l-0.2-0.2
			c2.6,0.1,5.1,0.1,7.7,0.1c2.6,0,5.1-0.1,7.7-0.1l3.8-0.1l3.8-0.1l7.7-0.1l-0.5,0.7c-0.4-1.7-0.7-3.5-0.9-5.2
			c-0.2-1.7-0.3-3.5-0.2-5.3c0-1.8,0.3-3.5,0.7-5.3c0.4-1.7,1.1-3.4,2-4.9l0.3,0.6l-5.1-0.4L-2400.7,1823.3z M-2400.8,1823.2h5.1
			l5.3,0c0.2,0,0.4,0.2,0.4,0.4c0,0.1,0,0.1-0.1,0.2l0,0c-0.8,1.5-1.4,3.1-1.7,4.7c-0.2,0.8-0.3,1.7-0.4,2.5
			c-0.1,0.8-0.1,1.7-0.1,2.6c0,1.7,0.1,3.4,0.2,5.1c0.2,1.7,0.4,3.4,0.8,5.1v0c0.1,0.3-0.1,0.6-0.4,0.6c0,0,0,0,0,0l0,0
			c0,0-0.1,0-0.1,0l-7.7-0.1l-3.8-0.1l-3.8-0.1c-2.6-0.1-5.1-0.1-7.7-0.1s-5.1,0-7.7,0.1c-0.1,0-0.2-0.1-0.2-0.2v0
			c0-0.7,0.2-1.4,0.6-2c0.4-0.6,0.8-1.1,1.3-1.6c1-0.9,2.2-1.7,3.4-2.3c1.2-0.6,2.5-1.1,3.8-1.5c0.7-0.2,1.3-0.4,1.9-0.6
			c0.6-0.2,1.2-0.5,1.8-0.8c2.4-1.1,4.4-2.8,6-4.8c0.8-1,1.5-2.2,2-3.4c0.3-0.6,0.5-1.2,0.7-1.8c0.1-0.3,0.2-0.6,0.3-1
			c0-0.2,0.1-0.3,0.1-0.5l0.1-0.2l0-0.1l0-0.1L-2400.8,1823.2C-2400.8,1823.3-2400.8,1823.2-2400.8,1823.2L-2400.8,1823.2z"/>
		<path class="st2" d="M-2392.6,1830.6h-11.2c-2.3,3-5.5,5.2-9.2,6.2c0,0-9.3,2.5-9.6,7.1h30.8
			C-2392.8,1839.6-2393,1835.1-2392.6,1830.6z"/>
		<path class="st2" d="M-2310.5,1590.7c0,0,1.5-0.8,4.6,0.4c0,0,8.4,2.7,8.8,4.8c0,0-2,0.2-7.7-2.4
			C-2304.8,1593.5-2309.7,1592.2-2310.5,1590.7z"/>
		<path class="st1" d="M-2311.3,1621.1l10.7-30.1l9-14.6c0,0,0-2.7-5.5,5.2c0,0-3,2.6-3.2,0.7l-0.5-3c-0.1-1.4-0.9-1.3-0.9-1.3
			c-0.8,0.1-0.7,5.7-0.7,5.8c-0.8,1.2-1.2,2.6-1.3,4c-0.3,2.2-1.3,3.6-2.5,5.4c0,0-9.8,12.6-11.5,24.4"/>
		<path class="st2" d="M-2311.3,1621.1c0.4-1.3,0.8-2.6,1.2-3.8l1.2-3.8c0.8-2.5,1.7-5.1,2.5-7.6s1.8-5,2.7-7.5
			c0.9-2.5,1.8-5,2.8-7.5l0-0.1l0,0l4.6-7.3l4.6-7.3l0,0.1c0,0,0-0.1,0-0.1c0,0,0,0,0-0.1c-0.1,0-0.2,0-0.3,0.1
			c-0.3,0.2-0.5,0.3-0.8,0.6c-0.5,0.5-1,1-1.4,1.5c-0.9,1.1-1.7,2.2-2.5,3.3l0,0l0,0c-0.4,0.3-0.8,0.7-1.3,0.9
			c-0.2,0.1-0.5,0.3-0.7,0.4c-0.3,0.1-0.6,0.2-0.9,0.1c-0.2,0-0.3-0.1-0.4-0.3c-0.1-0.1-0.2-0.3-0.2-0.4l-0.1-0.8l-0.2-1.5l-0.1-0.8
			c0-0.2-0.1-0.5-0.2-0.7c-0.1-0.2-0.2-0.4-0.4-0.4c0,0-0.1,0-0.1,0c0,0,0,0,0,0c-0.1,0.1-0.1,0.2-0.1,0.3c-0.1,0.5-0.2,1-0.2,1.5
			c0,0.5-0.1,1-0.1,1.6s0,1,0,1.6v0.4l0,0.2c0,0,0,0,0,0.1v0c0,0,0,0,0,0c0,0,0,0,0,0v0l0,0l-0.1,0.1c-0.1,0.2-0.3,0.4-0.4,0.6
			c-0.4,0.9-0.7,1.9-0.8,3c-0.1,0.5-0.2,1.1-0.3,1.6c-0.2,0.5-0.4,1-0.6,1.5c-0.5,0.9-1,1.8-1.6,2.7l0,0c-1.3,1.8-2.5,3.8-3.7,5.7
			c-1.2,1.9-2.3,3.9-3.3,5.9c-1,2-2,4.1-2.8,6.2c-0.4,1-0.8,2.1-1.1,3.2c-0.3,1.1-0.6,2.2-0.9,3.3l-0.1,0c0.1-1.1,0.3-2.3,0.5-3.4
			c0.2-1.1,0.6-2.2,0.9-3.3c0.4-1.1,0.8-2.2,1.2-3.2s0.9-2.1,1.4-3.1c0.5-1,1-2,1.6-3c0.6-1,1.1-2,1.8-2.9s1.3-1.9,1.9-2.8
			s1.3-1.8,2.1-2.7l0,0c0.6-0.8,1.2-1.7,1.7-2.6c0.5-0.9,0.8-1.9,0.9-2.9c0.1-1.1,0.4-2.1,0.9-3.1c0.1-0.2,0.3-0.5,0.4-0.7l0.1-0.1
			l0,0v0c0,0,0,0,0,0l0,0v0l0-0.2l0-0.4c0-0.5,0-1,0-1.6s0-1,0.1-1.6c0-0.5,0.1-1.1,0.3-1.6c0-0.1,0.1-0.3,0.2-0.4
			c0.1-0.1,0.2-0.1,0.3-0.2c0.1,0,0.2,0,0.2,0c0.3,0.1,0.5,0.3,0.7,0.6c0.1,0.3,0.2,0.5,0.2,0.8l0.1,0.8l0.2,1.5l0.1,0.8
			c0,0.2,0.2,0.4,0.4,0.4c0.2,0,0.5,0,0.7-0.1c0.2-0.1,0.5-0.2,0.7-0.3c0.4-0.3,0.8-0.6,1.2-0.9l0,0c0.8-1.2,1.6-2.3,2.5-3.4
			c0.4-0.6,0.9-1.1,1.4-1.6c0.3-0.3,0.6-0.5,0.9-0.7c0.1-0.1,0.2-0.1,0.3-0.1c0.1,0,0.3,0,0.4,0c0.1,0.1,0.3,0.2,0.3,0.3
			c0.1,0.1,0.1,0.2,0.1,0.4v0.1l0,0.1l-4.4,7.4l-4.4,7.3l0-0.1c-0.8,2.5-1.7,5-2.6,7.6c-0.9,2.5-1.8,5-2.7,7.5
			c-0.9,2.5-1.9,5-2.8,7.5l-1.5,3.7C-2310.2,1618.7-2310.7,1619.9-2311.3,1621.1L-2311.3,1621.1z"/>
		<path class="st1" d="M-2344.4,1668c6.8-2.8,13.6-5.6,19.4-9.9c5.9-4.4,10.7-10.5,12.1-17.6c1.3-6.9-0.7-14.6,2.8-20.7
			c2.1-3.7,5.9-6.1,8.6-9.4c3.3-4.1,4.9-9.3,4.3-14.5c-8.9-1.5-13.4-5.3-13.4-5.3s-11.5,17.9-13.4,31.9c-3.8,11.4-10.7,21.5-20,29.2
			"/>
		<path class="st2" d="M-2344.4,1668c1.8-0.8,3.6-1.6,5.3-2.4c1.8-0.8,3.5-1.6,5.2-2.5c3.4-1.7,6.7-3.8,9.7-6.2
			c3-2.4,5.5-5.3,7.5-8.5c1-1.6,1.8-3.3,2.3-5.1c0.6-1.8,0.9-3.7,1-5.5c0.3-3.8-0.1-7.7,0.4-11.7c0.2-2,0.8-4,1.6-5.9
			c0.9-1.8,2.2-3.5,3.6-4.9c1.4-1.4,2.9-2.7,4.2-4c0.6-0.7,1.2-1.4,1.8-2.1c0.5-0.7,1-1.5,1.5-2.3c1.7-3.3,2.4-7,2.1-10.7l0.8,0.8
			c-0.6-0.1-1.2-0.2-1.8-0.4c-0.6-0.1-1.2-0.3-1.8-0.4c-1.2-0.3-2.4-0.7-3.5-1.1c-1.2-0.4-2.3-1-3.4-1.5c-0.6-0.3-1.1-0.6-1.6-0.9
			c-0.3-0.2-0.5-0.3-0.8-0.5c-0.3-0.2-0.5-0.4-0.8-0.6l1.4-0.2c-1.5,2.4-3,4.9-4.3,7.5s-2.7,5.1-3.8,7.7c-1.2,2.6-2.3,5.3-3.2,8
			c-0.9,2.7-1.7,5.5-2.1,8.3l0,0.1l0,0c-0.5,1.4-1,2.9-1.6,4.3c-0.6,1.4-1.2,2.7-1.9,4.1c-0.7,1.3-1.4,2.6-2.2,3.9
			c-0.8,1.3-1.6,2.5-2.5,3.8c-1.7,2.4-3.7,4.8-5.7,7c-2.1,2.2-4.3,4.2-6.6,6.1l-0.1-0.1c2.3-1.9,4.5-4,6.5-6.2c2-2.2,3.9-4.6,5.5-7
			c1.7-2.5,3.2-5,4.6-7.7c1.4-2.7,2.5-5.4,3.4-8.3v0c0.4-2.9,1.1-5.7,2-8.5c0.9-2.8,2-5.5,3.2-8.1c1.2-2.7,2.5-5.3,3.8-7.8
			c1.4-2.6,2.8-5.1,4.3-7.6l0.1-0.1l0.1,0.1c1,0.7,2,1.4,3,1.9c1.1,0.6,2.2,1,3.3,1.5c1.1,0.4,2.3,0.8,3.4,1.1
			c0.6,0.2,1.2,0.3,1.8,0.4c0.6,0.1,1.2,0.2,1.8,0.3l0.1,0l0,0.1c0.4,3.9-0.4,7.8-2.2,11.3c-0.5,0.9-1,1.7-1.6,2.5
			c-0.6,0.8-1.2,1.5-1.9,2.2c-1.4,1.4-2.8,2.7-4.2,4c-1.4,1.3-2.6,2.9-3.5,4.6c-0.8,1.7-1.4,3.6-1.6,5.5c-0.5,3.8-0.2,7.7-0.5,11.6
			c-0.1,1.9-0.5,3.9-1.1,5.7c-0.6,1.8-1.5,3.6-2.5,5.3c-2.1,3.3-4.7,6.2-7.8,8.6c-3.1,2.4-6.4,4.4-9.9,6.1
			c-3.5,1.7-7.1,3.2-10.7,4.7L-2344.4,1668z"/>
		<path class="st2" d="M-2491.9,1713.2c0,0-8.4-3.9-17,0l-10.9,8.1c0,0-7.5,3.5-17.2-14.2c0,0-10.6,7.6-9.2,11.7
			c7.5,21.9,25.4,23.8,25.4,23.8s8.7,1.1,31.5-17.1"/>
		<path class="st1" d="M-2560,1774.1c0,0-14.7,2.7-13.6,0.4c0.4-1,6.9-4.5,12.4-4.5"/>
		<path class="st2" d="M-2560,1774.2c-2.3,0.5-4.5,0.9-6.8,1.2c-1.1,0.2-2.3,0.3-3.5,0.4c-0.6,0-1.2,0-1.8,0c-0.3,0-0.6,0-0.9-0.1
			c-0.2,0-0.3-0.1-0.5-0.1c-0.2-0.1-0.4-0.2-0.5-0.4c-0.1-0.1-0.1-0.2-0.1-0.4c0-0.1,0-0.2,0.1-0.3c0.1-0.2,0.2-0.3,0.3-0.5
			c0.2-0.2,0.4-0.4,0.7-0.6c0.2-0.2,0.5-0.3,0.8-0.5c0.3-0.1,0.5-0.3,0.8-0.3c0.6-0.1,1.1-0.3,1.7-0.5c0.5-0.2,1.1-0.5,1.6-0.8
			c0.5-0.3,1.1-0.5,1.6-0.7c0.3-0.1,0.6-0.2,0.8-0.3c0.3-0.1,0.6-0.2,0.9-0.2c1.2-0.2,2.4-0.2,3.6,0.1v0.1c-1.1,0.3-2.2,0.6-3.3,0.9
			c-0.3,0.1-0.5,0.1-0.8,0.2l-0.8,0.2c-0.6,0.1-1.1,0.3-1.7,0.3c-0.6,0.1-1.1,0.2-1.7,0.5c-0.5,0.2-1,0.6-1.5,0.9
			c-0.2,0.2-0.5,0.3-0.7,0.5c-0.2,0.1-0.5,0.3-0.7,0.4c-0.2,0.1-0.5,0.3-0.7,0.4c-0.1,0.1-0.2,0.2-0.3,0.2c0,0.1,0,0.1,0,0.1
			c0,0.1,0.1,0.1,0.2,0.1c0.1,0.1,0.2,0.1,0.4,0.1c0.3,0.1,0.5,0.1,0.8,0.1c0.6,0,1.1,0,1.7,0c1.1,0,2.3-0.1,3.4-0.2
			C-2564.6,1774.8-2562.3,1774.5-2560,1774.2L-2560,1774.2z"/>
		<path class="st2" d="M-2598.5,1829.3l-8.3-5.5l-7.3,10.1l-17,4.6c0,0-0.5,4.8,3.5,5.7h36.2l-1.9-15.4L-2598.5,1829.3z"/>
		<path class="st1" d="M-2585.6,1829.5l-7.7,0.4l1.7,13.2l9.9-0.1L-2585.6,1829.5z"/>
		<path class="st2" d="M-2585.6,1829.5l-3.9,0.5c-1.3,0.1-2.5,0.3-3.7,0.4l0.4-0.5c0.2,1.1,0.4,2.2,0.5,3.3c0.2,1.1,0.3,2.2,0.4,3.3
			l0.4,3.3c0.1,1.1,0.2,2.2,0.3,3.3l-0.4-0.3l2.5,0.1c0.8,0,1.6,0,2.5,0c0.8,0,1.6,0,2.5,0c0.8,0,1.6-0.1,2.5-0.1l-0.3,0.4
			c-0.4-1.1-0.8-2.2-1.1-3.3c-0.3-1.1-0.6-2.2-0.9-3.3c-0.3-1.1-0.6-2.3-0.8-3.4C-2585.1,1832-2585.3,1830.8-2585.6,1829.5z
			 M-2585.5,1829.4c0.4,1,0.8,2.1,1.2,3.2c0.4,1.1,0.8,2.2,1.1,3.3c0.4,1.1,0.7,2.3,1,3.4c0.3,1.2,0.6,2.3,0.8,3.5l0.1,0.4l-0.3,0
			c-0.8,0-1.6-0.1-2.5-0.1c-0.8,0-1.6,0-2.5,0s-1.6,0.1-2.5,0.1l-2.5,0.2l-0.3,0l-0.1-0.3c-0.2-1.1-0.4-2.2-0.6-3.3l-0.5-3.3
			c-0.2-1.1-0.3-2.2-0.4-3.3c-0.1-1.1-0.2-2.2-0.3-3.3l-0.1-0.5l0.5,0c1.3,0,2.7,0,4,0C-2588,1829.4-2586.7,1829.4-2585.5,1829.4
			L-2585.5,1829.4z"/>
		<path class="st2" d="M-2539.1,1819.3l-23.2-30.5c0,0-8.7-15.8-5.1-27.1l33.5-0.3l31.8,64.7c0,0,4,17.4-14.6,18h-65.9l-6.5-15.7
			c-1.3-3.2-2.7-6.5-4-9.7c-0.7-1.8-1.2-2.5,0.9-3.6c2.5-1.3,5.9-0.6,8.3,0.4c3.3,1.4,6.3,3.5,9.9,4.2c5,1,10.1-1.3,15.1-2.2
			c4.2-0.7,8.5-0.5,12.6,0.7c2.5,0.7,5,1.9,7.6,1.9"/>
		<path class="st1" d="M-2516.6,1796.9l-17.4-35.3l-23.3,6.4C-2548.4,1786.2-2535,1796.1-2516.6,1796.9z"/>
		<path class="st2" d="M-2329.4,1698.9c0,0-0.7,4.9-9.3,5.8l-1.7-6.3L-2329.4,1698.9z"/>
		<path class="st1" d="M-2479.4,1826.1l1.5,3.8h11.3l-1.8-3.8H-2479.4z"/>
		<path class="st2" d="M-2479.4,1826.1c0.3,0.7,0.7,1.3,1,1.9s0.6,1.2,0.9,1.7l-0.4-0.3c0.5,0,0.9,0,1.4,0c0.5,0,0.9,0,1.4,0
			c0.9,0,1.9,0.1,2.8,0.2c0.9,0.1,1.9,0.1,2.8,0.1c0.9,0,1.9-0.1,2.8-0.1l-0.3,0.4c-0.3-0.6-0.7-1.2-1-1.9s-0.6-1.3-1-1.9l0.5,0.3
			c-1.8,0.1-3.5,0-5.3-0.1c-0.9-0.1-1.8-0.1-2.8-0.2L-2479.4,1826.1z M-2479.5,1826l2.6-0.2c0.9-0.1,1.8-0.1,2.8-0.2
			c1.9-0.1,3.8-0.1,5.8-0.1l0.4,0l0.1,0.3c0.3,0.6,0.5,1.3,0.8,2c0.3,0.7,0.5,1.3,0.7,2l0.2,0.5l-0.4,0c-0.9-0.1-1.9-0.1-2.8-0.1
			c-0.9,0-1.9,0-2.8,0.1c-0.9,0.1-1.9,0.2-2.8,0.2c-0.5,0-0.9,0-1.4,0c-0.5,0-0.9,0-1.4,0l-0.3,0l-0.1-0.3c-0.2-0.7-0.5-1.4-0.7-2.1
			C-2479.1,1827.3-2479.3,1826.6-2479.5,1826L-2479.5,1826z"/>
		<path class="st2" d="M-2479,1828.9l5.5,15.1h28.4c0,0,1.3-4.4-6.2-6.7c0,0-11.1-0.8-13.9-8.8L-2479,1828.9z"/>
		<path class="st1" d="M-2540.6,1703c-2.4-4.5-3.4-9.5-2.4-12.3c0,0,8,2.7,9.1-2.8c0,0,2.2-8.8-4.3-19c0,0-8.3-9.7-16.7-0.3
			c0,0-4.6,5.6-2,10.5c0,0,5.1,6.6,3.5,9.8c-1.1,4.2-3.3,8.1-6.2,11.4"/>
		<path class="st2" d="M-2541.1,1703.2c-2.5-4.8-3.5-9.9-2.4-12.7l0.2-0.5l0.5,0.2c0,0,4.3,1.4,6.8,0c0.9-0.5,1.4-1.4,1.6-2.3
			c0.4-1.8,0.5-3.7,0.3-5.6c-0.4-4.6-2-9.1-4.5-13c-0.3-0.4-3.8-4.2-8.3-4.2c-2.7,0-5.2,1.3-7.5,3.9c0,0-4.3,5.3-1.9,9.9
			c0.5,0.6,5.1,6.9,3.5,10.2c-1.2,4.3-3.3,8.3-6.3,11.6l-0.8-0.7c2.9-3.2,4.9-7,6.1-11.2l0-0.1l0-0.1c1.2-2.3-2.1-7.4-3.4-9.2
			l-0.1-0.1c-1.2-2.2-1.2-4.8,0-7.6c0.5-1.3,1.2-2.5,2.1-3.6c2.5-2.9,5.3-4.3,8.3-4.3h0.1c5.2,0,9,4.4,9.1,4.6l0,0.1
			c6.6,10.3,4.5,19.1,4.4,19.4c-0.2,1.3-1,2.4-2.1,3.1c-2.4,1.4-5.8,0.6-7.2,0.3c-0.7,2.6,0.3,7.2,2.5,11.3L-2541.1,1703.2z"/>
		<path class="st3" d="M-2554.4,1691.6c0,0,3.2-6.6,3.8-9.5c0.1-0.6-0.1-1.3-0.5-1.7c-0.5-0.5-1.5-1-1.7-1.8c0,0-0.8-2.2,1.3-2.2
			c1.1,0,2.2,0.6,2.7,1.6c0,0,1.1,2.2,1.8,1.2c0.7-2.1,0.9-4.3,0.5-6.5l10-1.2c0,0-2.3-6.2-5.4-8.2c0,0-4.4-1.2-12.2,2
			c-2.3,1.1-4.4,2.7-5.9,4.8c0,0-1.9,3.5,1.2,8.6c0,0,3.9,5.3,4.5,6.7C-2553.6,1687.1-2554.4,1691.6-2554.4,1691.6z"/>
		<path class="st2" d="M-2453.2,1826.7l-27-49.6c0,0-2.5-6.4-11.1-8.5l-35.8-7.1l-40.3,0.3c0,0,8.5,28.8,55.2,33.7
			c2.2,0.5,4.4,0.8,6.7,0.9c2.8,0.1,4.1,2.4,4.6,5c0.4,2.3,0.4,4.7,1.2,6.8c1.4,3.4,4.9,5.5,6.8,8.7c0.9,1.7,1.6,3.4,2.3,5.1
			c1.9,4.1,4.4,4.7,8.5,4.7h28.2C-2453.8,1826.7-2453.5,1826.7-2453.2,1826.7z"/>
		<rect x="-2516.6" y="1680.8" class="st1" width="142.4" height="81.1"/>
		<path class="st2" d="M-2374.1,1761.9c-11.7,0.2-23.5,0.3-35.4,0.4l-17.8,0.2l-17.8,0.1l-17.9,0.1c-6,0-11.9,0-17.9,0
			c-6,0-11.9-0.1-17.9-0.1l-17.9-0.2h-0.5v-0.5c0.1-6.8,0.1-13.5,0.2-20.3l0-10.1c0-3.4,0-6.8,0-10.1l-0.1-20.3l-0.2-20.3v-0.5h0.5
			l17.8-0.2l17.8-0.1c11.9-0.1,23.7-0.1,35.6-0.1l17.8-0.1l17.8,0l17.8,0l8.9,0l8.9,0.1l0.9,0l0,0.9l-0.1,20.4l-0.1,10.2l-0.1,10.2
			L-2374.1,1761.9z M-2374.3,1761.8l-0.5-40.7l-0.1-10.1l-0.1-10.1l-0.1-20.1l0.9,0.9l-8.9,0.1l-8.9,0l-17.8,0l-17.8,0l-17.8-0.1
			c-11.9,0-23.7-0.1-35.6-0.1l-17.8-0.1l-17.8-0.2l0.5-0.5l-0.2,20.3l-0.1,20.3c0,3.4,0,6.8,0,10.1l0,10.1c0,6.8,0.1,13.5,0.2,20.3
			l-0.5-0.5l17.7-0.2c5.9-0.1,11.8-0.1,17.7-0.1c5.9,0,11.8,0,17.7,0l17.7,0.1l17.8,0.1l17.8,0.2
			C-2398.2,1761.5-2386.3,1761.6-2374.3,1761.8L-2374.3,1761.8z"/>
		<path class="st1" d="M-2343.9,1622.3c0,0-7.1,8.1-3.2,15c0,0,1,1.7,4.7,1c-0.4,2.8-1.4,5.5-2.9,8l11.9-0.6c0,0-1.9-3.1-1.1-9.2
			c0,0,4-4.3,3.3-9.7c0,0-1.5-5.7-5.9-6.4C-2337.1,1620.4-2341.6,1620.4-2343.9,1622.3z"/>
		<path class="st2" d="M-2337.2,1621.5c3.4,0.7,4.8,5,5,5.6c0.5,4.8-3,8.7-3.1,8.8l-0.2,0.3l0,0.4c-0.4,2.8-0.2,5.6,0.6,8.3
			l-8.4,0.4c1-2.1,1.7-4.3,2.1-6.6l0.2-1.5l-1.5,0.3c-0.5,0.1-0.9,0.1-1.4,0.1c-0.8,0.1-1.6-0.1-2.2-0.7c-3.2-5.9,2.5-12.9,3.1-13.6
			C-2341.5,1621.8-2338.4,1621.5-2337.2,1621.5 M-2337.1,1620.4c0,0-4.5,0-6.8,2c0,0-7.1,8.1-3.2,15c0,0,0.7,1.2,3.1,1.2
			c0.5,0,1.1-0.1,1.6-0.1c-0.4,2.8-1.4,5.5-2.9,8l11.9-0.6c0,0-1.9-3.1-1.1-9.2c0,0,4-4.3,3.3-9.7
			C-2331.2,1626.8-2332.7,1621.1-2337.1,1620.4L-2337.1,1620.4z"/>
		<path class="st1" d="M-2361.4,1696.8l-17.8,47.4c0,0-3.4,9.8,6.3,19.6l61.1,64.2l17.5-18.4l-0.1-0.3c-5.6-4.5-9.8-10.4-12.3-17.1
			c-1.3-3.5-2.1-7.4-4.5-10.2c-2.9-3.4-7.5-4.8-11.6-6.7c-4.6-2.2-8.7-5.2-12.2-8.8c0,0,1.8-54.8-6.1-69.6L-2361.4,1696.8z"/>
		<path class="st2" d="M-2361.4,1696.8l-13.8,37.8c-1.1,3.1-2.3,6.3-3.4,9.4c-0.3,0.8-0.4,1.5-0.5,2.3c-0.1,0.8-0.1,1.6-0.1,2.4
			c0,1.6,0.3,3.2,0.8,4.8c0.5,1.6,1.1,3.1,1.9,4.5l0.7,1c0.2,0.4,0.4,0.7,0.7,1l0.7,1l0.4,0.5l0.4,0.5c1.1,1.2,2.3,2.4,3.4,3.6
			l3.5,3.6c4.6,4.8,9.3,9.6,13.9,14.5l13.9,14.5l27.8,29.1h-1.4l4.4-4.6l4.4-4.6l8.8-9.2l-0.2,0.9l-0.1-0.3l0.3,0.5
			c-4.1-3.3-7.5-7.3-10-11.9c-1.2-2.3-2.3-4.7-3.1-7.2c-0.7-2.4-1.6-4.7-2.7-6.9c-0.6-1-1.4-1.9-2.3-2.7c-0.9-0.8-1.9-1.5-3-2.1
			c-2.2-1.2-4.6-2.1-6.9-3.2c-4.7-2.2-9-5.3-12.6-9.1l-0.2-0.2l0-0.3c0.2-5.8,0.3-11.7,0.3-17.5c0-5.8-0.1-11.7-0.4-17.5
			c-0.1-2.9-0.3-5.8-0.5-8.8c-0.2-2.9-0.5-5.8-0.8-8.7c-0.3-2.9-0.8-5.8-1.4-8.6c-0.5-2.9-1.4-5.6-2.7-8.3l0.2,0.1L-2361.4,1696.8z
			 M-2361.5,1696.8l20.3,0h0l0,0c1.3,2.7,2.2,5.5,2.8,8.3c0.6,2.9,1.1,5.8,1.5,8.7c0.4,2.9,0.7,5.8,0.9,8.7c0.2,2.9,0.4,5.8,0.6,8.8
			c0.3,5.8,0.5,11.7,0.5,17.6c0.1,5.9,0,11.7-0.1,17.6l0-0.1c3.5,3.7,7.7,6.7,12.3,8.9c2.3,1.1,4.7,2,7,3.2c1.1,0.6,2.2,1.3,3.2,2.2
			c1,0.8,1.8,1.8,2.5,2.9c1.2,2.3,2.2,4.6,2.8,7.1c0.8,2.4,1.8,4.8,3,7c2.5,4.5,5.8,8.4,9.8,11.6l0,0l0,0l0.1,0.3l0,0.1l0,0
			l-17.5,18.4l-0.1,0.1l-0.1-0.1l-55.4-58.3l-3.5-3.6c-1.2-1.2-2.3-2.4-3.4-3.7l-0.4-0.5l-0.4-0.5l-0.8-1c-0.3-0.3-0.5-0.7-0.7-1
			l-0.7-1.1c-0.8-1.5-1.5-3-1.9-4.6c-0.5-1.6-0.7-3.3-0.8-5c0-0.8,0-1.7,0.1-2.5c0.1-0.8,0.3-1.7,0.6-2.5l3.5-9.4L-2361.5,1696.8z"
			/>
		<path class="st1" d="M-2302.5,1818.1l13.7,14l-15.8,11.8h-10.8c0,0-0.8-3.4,8.8-7.7c0,0,3.9-2.9,0.4-8.3l-2.4-3.5L-2302.5,1818.1z
			"/>
		<path class="st2" d="M-2302.5,1818.1l3.5,3.3l3.5,3.4c2.4,2.3,4.7,4.7,7,7.1l0,0c0.2,0.2,0.2,0.5,0,0.7l0,0c0,0,0,0,0,0
			c-1.3,1-2.7,1.9-4,2.9l-4,2.8c-1.3,1-2.7,1.9-4,2.9c-1.3,1-2.6,2-3.9,3c0,0-0.1,0-0.1,0h0l-5.4,0.1c-1.8,0.1-3.6,0.1-5.4,0.1h0
			c-0.2,0-0.4-0.2-0.5-0.4c0-0.2,0-0.4,0-0.5c0-0.2,0-0.3,0.1-0.4c0-0.1,0.1-0.3,0.1-0.4c0-0.1,0.1-0.3,0.2-0.4
			c0.2-0.5,0.6-0.9,0.9-1.4c0.7-0.8,1.5-1.5,2.4-2.1c0.8-0.6,1.7-1.2,2.6-1.7c0.5-0.2,0.9-0.5,1.4-0.7l1.4-0.7l-0.1,0.1
			c0.1-0.1,0.2-0.1,0.2-0.2c0.1-0.1,0.2-0.2,0.2-0.3c0.2-0.2,0.3-0.4,0.4-0.6c0.3-0.4,0.5-0.9,0.6-1.4c0.2-1,0.1-2-0.2-3
			c-0.1-0.3-0.2-0.5-0.3-0.7l-0.2-0.4c-0.1-0.1-0.1-0.2-0.2-0.4l-0.4-0.7l-0.5-0.7c-0.6-0.9-1.2-1.9-1.8-2.8l0,0
			c-0.1-0.1-0.1-0.3,0.1-0.5l3.2-3.1L-2302.5,1818.1z M-2302.5,1818.2l-2.9,3.4l-2.9,3.2l0-0.5c0.7,0.9,1.3,1.8,1.9,2.7l0.5,0.7
			c0.2,0.2,0.3,0.5,0.5,0.7c0.1,0.1,0.2,0.2,0.2,0.4l0.2,0.4c0.1,0.3,0.2,0.5,0.3,0.8c0.4,1.1,0.5,2.4,0.3,3.6
			c-0.1,0.6-0.4,1.2-0.7,1.7c-0.2,0.3-0.3,0.5-0.5,0.8c-0.2,0.2-0.4,0.5-0.7,0.7c0,0-0.1,0-0.1,0.1l0,0l-1.4,0.6
			c-0.5,0.2-0.9,0.5-1.3,0.7c-0.9,0.5-1.7,1-2.6,1.5c-0.8,0.5-1.5,1.2-2.2,1.9c-0.3,0.3-0.6,0.7-0.8,1.1c-0.1,0.1-0.1,0.2-0.1,0.3
			c0,0.1-0.1,0.2-0.1,0.3c0,0.1-0.1,0.2-0.1,0.3c0,0.1,0,0.2,0,0.2l-0.5-0.4c1.8,0,3.6,0.1,5.4,0.1l5.4,0.1l-0.1,0
			c1.3-0.9,2.7-1.9,4-2.9c1.3-1,2.6-2,3.9-3l3.9-3.1c1.3-1,2.6-2,3.9-3l-0.1,0.7c-2.3-2.3-4.5-4.6-6.7-7l-3.3-3.6L-2302.5,1818.2z"
			/>
		<path class="st2" d="M-2298.2,1822.5l-8.1,5.3l0.1,0.2c3.5,5.5-0.4,8.3-0.4,8.3c-9.6,4.3-8.8,7.7-8.8,7.7h10.8l15.8-11.8
			L-2298.2,1822.5z"/>
		<path class="st2" d="M-2347.2,1733.8c0.8-9.6,3.5-19.6,9.1-27.3c-0.6-3.4-1.6-6.7-3.1-9.8h-20.3l-17.8,47.4c0,0-3.4,9.8,6.3,19.6
			l21,22.1c1.4-3.9,2.4-7.9,3.1-12C-2346.8,1760.7-2348.4,1747.2-2347.2,1733.8z"/>
		<path class="st1" d="M-2369.2,1821.5c-3.5-8.7-4.6-15.9,0.7-23.9c4.1-6.2,10.8-11.8,12.6-19.2c3.9-16.8-0.9-28.4,8.6-44.2
			c2.4-4.1,7.7-12.2,9.4-16.5c2.5-6.2-0.8-14.6-3.2-20.8h-20.3l-47.5,126.1l41,1.6L-2369.2,1821.5z"/>
		<path class="st2" d="M-2369.3,1821.5c-1.1-2.6-1.9-5.3-2.5-8c-0.3-1.4-0.4-2.8-0.5-4.2c0-1.4,0.1-2.8,0.4-4.2
			c0.6-2.8,1.7-5.4,3.3-7.7c1.6-2.3,3.3-4.5,5.1-6.7c1.8-2.1,3.5-4.4,4.9-6.8c0.7-1.2,1.3-2.4,1.8-3.8c0.1-0.3,0.2-0.7,0.3-1
			c0.1-0.3,0.2-0.7,0.3-1l0.4-2.1l0.2-1l0.2-1c0.1-0.7,0.2-1.4,0.3-2.1c0.1-1.4,0.3-2.8,0.4-4.2c0.2-2.8,0.3-5.6,0.4-8.4
			c0-0.7,0.1-1.4,0.1-2.1c0-0.7,0.1-1.4,0.1-2.1l0.2-2.1l0.2-2.1c0.3-2.8,0.9-5.6,1.8-8.3c0.1-0.3,0.2-0.7,0.3-1l0.4-1l0.4-1
			c0.1-0.3,0.3-0.6,0.4-1l0.9-1.9c0.3-0.6,0.7-1.2,1-1.9c0.7-1.3,1.4-2.5,2.1-3.7l2.2-3.6c1.4-2.4,2.9-4.8,4.1-7.3
			c0.2-0.3,0.3-0.6,0.5-0.9c0.2-0.3,0.3-0.6,0.4-0.9c0.1-0.3,0.3-0.6,0.4-0.9c0.1-0.2,0.1-0.3,0.2-0.5l0.1-0.5
			c0.4-1.3,0.6-2.6,0.6-3.9c0-2.7-0.5-5.4-1.3-8c-0.8-2.6-1.8-5.2-2.8-7.8l0.8,0.6l-20.3,0.1l0.9-0.6c-3.9,10.5-7.9,21-11.9,31.5
			s-8,21-12,31.5l-24.3,62.9l-0.2-0.3l41,1.7l-0.1,0.1L-2369.3,1821.5z M-2369.2,1821.5l1.3,3l0,0.1h-0.1l-41-1.5h-0.1l0-0.1
			l47.5-126.2l0-0.1h0.1l20.3,0h0.1l0,0.1c1,2.6,2,5.2,2.8,7.9c0.8,2.7,1.3,5.5,1.3,8.3c0,1.4-0.2,2.8-0.7,4.1l-0.2,0.5
			c-0.1,0.2-0.1,0.3-0.2,0.5c-0.1,0.3-0.3,0.6-0.4,1s-0.3,0.6-0.5,0.9s-0.3,0.6-0.5,0.9c-1.3,2.5-2.8,4.9-4.2,7.3l-2.2,3.6
			c-0.7,1.2-1.5,2.4-2.1,3.6c-0.3,0.6-0.7,1.2-1,1.8l-0.9,1.9c-0.1,0.3-0.3,0.6-0.4,1l-0.4,1l-0.4,1c-0.1,0.3-0.3,0.6-0.3,1
			c-0.8,2.7-1.5,5.4-1.8,8.2l-0.2,2.1l-0.2,2.1c-0.1,0.7-0.1,1.4-0.1,2.1s-0.1,1.4-0.1,2.1c-0.1,2.8-0.2,5.6-0.5,8.4
			c-0.1,1.4-0.3,2.8-0.4,4.2c-0.1,0.7-0.2,1.4-0.3,2.1l-0.2,1l-0.2,1l-0.4,2.1c-0.1,0.3-0.2,0.7-0.3,1c-0.1,0.3-0.2,0.7-0.3,1
			c-0.5,1.3-1.1,2.6-1.8,3.8c-1.5,2.4-3.1,4.6-5,6.8c-1.8,2.1-3.5,4.3-5.1,6.6c-1.6,2.3-2.7,4.9-3.3,7.6c-0.3,1.4-0.4,2.8-0.4,4.2
			c0,1.4,0.2,2.8,0.4,4.2C-2371.1,1816.2-2370.2,1818.9-2369.2,1821.5L-2369.2,1821.5z"/>
		<path class="st1" d="M-2362,1698.2l3.9-15.2c0.8-3.2,1.2-6.4,1.3-9.7l-2.5-8.8c-0.8-3.8,8.9-14.7,8.9-14.7
			c4.6-4.9,12.3-5.4,12.3-5.4c10.1,0,7.8,15.7,7.8,15.7s-2.6,12.3-4.3,17.9c-0.4,1.3-0.6,2.6-0.6,3.9c-0.1,2.5,0.4,4.9,1.3,7.2
			l3.8,9.7c0,0-4.3,4.4-19.2,0.4C-2349.3,1699.2-2358.5,1695.9-2362,1698.2z"/>
		<path class="st2" d="M-2362,1698.3c0.5-2,1-4.1,1.4-6.1c0.5-2.1,1-4.2,1.4-6.3l0.7-3.2c0.2-1,0.4-2.1,0.6-3.1
			c0.3-2.1,0.5-4.2,0.6-6.3l0,0.1l-1.8-6l-0.4-1.5l-0.2-0.8l-0.1-0.4l0-0.1l0-0.1c0-0.1,0-0.2,0-0.2c0-0.6,0.1-1.2,0.2-1.7
			c0.2-0.5,0.4-1,0.6-1.5c1-1.9,2.1-3.7,3.4-5.4c1.3-1.7,2.6-3.3,4-4.9c0.3-0.4,0.7-0.8,1.1-1.2c0.4-0.4,0.8-0.7,1.2-1.1
			c0.8-0.7,1.7-1.2,2.7-1.7c1.9-1,3.9-1.7,6-2.1c0.5-0.1,1-0.2,1.6-0.3c0.3,0,0.5-0.1,0.8-0.1c0.1,0,0.3,0,0.4,0l0.4,0
			c1.1,0,2.1,0.3,3.1,0.8c1,0.5,1.8,1.3,2.4,2.1c0.6,0.9,1.1,1.8,1.4,2.9c0.6,2,0.9,4.2,0.9,6.3c0,1.1,0,2.1-0.1,3.2l0,0.4l0,0.2
			l0,0.2l-0.2,0.8l-0.3,1.5c-0.8,4.1-1.7,8.2-2.8,12.3c-0.3,1-0.5,2-0.8,3.1c-0.3,1-0.5,2-0.6,3c-0.1,1-0.1,2,0,3c0.1,1,0.3,2,0.5,3
			c0.1,0.5,0.3,1,0.5,1.4l0.6,1.4l1.1,2.9l2.3,5.9l0.1,0.3l-0.3,0.2c-0.1,0.1-0.2,0.2-0.3,0.3c-0.1,0.1-0.2,0.1-0.3,0.2
			c-0.2,0.1-0.4,0.2-0.6,0.3c-0.4,0.2-0.8,0.4-1.2,0.5c-0.8,0.3-1.6,0.5-2.5,0.6c-1.7,0.2-3.4,0.3-5,0.2c-3.3-0.2-6.6-0.8-9.8-1.8
			l0,0h0c-1-0.4-2-0.7-3.1-1c-1-0.3-2.1-0.5-3.2-0.7c-1.1-0.2-2.1-0.3-3.2-0.3c-0.5,0-1.1,0.1-1.6,0.2c-0.3,0.1-0.5,0.1-0.8,0.2
			c-0.1,0-0.2,0.1-0.4,0.2l-0.2,0.1C-2361.8,1698.2-2361.9,1698.3-2362,1698.3z M-2361.9,1698.2c0-0.1,0.1-0.1,0.1-0.1l0.2-0.1
			c0.1-0.1,0.2-0.1,0.4-0.2c0.3-0.1,0.5-0.2,0.8-0.3c0.5-0.1,1.1-0.2,1.6-0.2c1.1-0.1,2.2,0,3.3,0.1c1.1,0.1,2.2,0.3,3.2,0.6
			c1.1,0.3,2.1,0.5,3.2,0.9l0,0c1.6,0.4,3.2,0.7,4.8,1c1.6,0.3,3.2,0.4,4.9,0.5c1.6,0.1,3.2,0,4.8-0.3c0.8-0.1,1.6-0.3,2.3-0.6
			c0.4-0.1,0.7-0.3,1.1-0.5c0.2-0.1,0.3-0.2,0.5-0.3c0.1-0.1,0.2-0.1,0.2-0.2s0.2-0.1,0.2-0.1l-0.1,0.6l-2.3-5.8l-1.2-2.9l-0.6-1.5
			c-0.2-0.5-0.4-1-0.5-1.5c-0.6-2.1-0.8-4.3-0.6-6.4c0.1-1.1,0.3-2.1,0.7-3.2c0.3-1,0.6-2,0.9-3c0.5-2,1-4,1.5-6.1s1-4.1,1.4-6.1
			l0.3-1.5l0.2-0.8l0-0.2l0-0.2l0-0.4c0.1-1,0.2-2.1,0.2-3.1c0.1-2.1-0.2-4.1-0.7-6.1c-0.3-1-0.7-1.9-1.3-2.8
			c-0.6-0.9-1.3-1.6-2.2-2c-0.9-0.5-1.9-0.7-2.9-0.8l-0.4,0c-0.1,0-0.3,0-0.4,0c-0.3,0-0.5,0.1-0.8,0.1c-0.5,0.1-1,0.2-1.5,0.3
			c-2,0.4-4,1.2-5.8,2.2c-0.9,0.5-1.8,1.1-2.5,1.8c-0.4,0.3-0.8,0.7-1.1,1.1c-0.3,0.4-0.7,0.8-1,1.2c-1.3,1.6-2.6,3.3-3.8,5
			c-1.2,1.7-2.3,3.5-3.2,5.3c-0.2,0.5-0.4,0.9-0.5,1.4c-0.1,0.4-0.2,0.9-0.2,1.4c0,0,0,0.1,0,0.1l0,0.1l0,0.1l0.1,0.4l0.2,0.8
			l0.4,1.5l1.7,6l0,0.1v0.1c-0.1,2.1-0.3,4.3-0.7,6.4c-0.2,1.1-0.4,2.1-0.7,3.1c-0.3,1-0.5,2-0.8,3c-0.6,2-1.1,4-1.7,6.1
			C-2360.8,1694-2361.3,1696.1-2361.9,1698.2L-2361.9,1698.2z"/>
		<line class="st4" x1="-2343.3" y1="1665.5" x2="-2358.5" y2="1684.6"/>
		<path class="st2" d="M-2343.3,1665.6c-1,1.8-2.1,3.5-3.3,5.2c-0.6,0.8-1.2,1.6-1.8,2.5l-1.9,2.4c-0.6,0.8-1.3,1.6-1.9,2.4
			s-1.3,1.6-2,2.3c-1.3,1.5-2.8,3-4.3,4.4l-0.1-0.1l7.6-9.6L-2343.3,1665.6L-2343.3,1665.6z"/>
		<line class="st4" x1="-2406.5" y1="1844" x2="-2204.3" y2="1844"/>
		<path class="st2" d="M-2406.5,1843.9l6.3-0.2l6.3-0.2l12.6-0.3l25.3-0.4l6.3-0.1l6.3-0.1l12.6-0.1l25.3-0.1l25.3,0.1l12.6,0.1
			l6.3,0.1l6.3,0.1l25.3,0.4l12.6,0.3l6.3,0.2l6.3,0.2v0.2l-101.1,0.1l-101.1-0.1L-2406.5,1843.9z"/>
		<line class="st4" x1="-2717.9" y1="1844" x2="-2515.7" y2="1844"/>
		<path class="st2" d="M-2717.9,1843.9l6.3-0.2l6.3-0.2l12.6-0.3l25.3-0.4l6.3-0.1l6.3-0.1l12.6-0.1l25.3-0.1l25.3,0.1l12.6,0.1
			l6.3,0.1l6.3,0.1l25.3,0.4l12.6,0.3l6.3,0.2l6.3,0.2v0.2l-101.1,0.1l-101.1-0.1L-2717.9,1843.9z"/>
		<path class="st2" d="M-2547.6,1688.1c1,2.4,2.6,4.6,4.6,6.2c-0.1-1.4-0.1-2.8,0.3-4.1C-2542.8,1690.2-2546.7,1689.2-2547.6,1688.1
			z"/>
		<path class="st2" d="M-2392,1635.3c0.1-1,0.2-2.1,0.4-3.1l0.2-1.5l0.1-0.8l0.2-0.8c0.2-1,0.4-2,0.7-3l0.4-1.5l0.4-1.5
			c1.2-4,2.8-7.9,4.7-11.6c2-3.7,4.3-7.2,6.9-10.5c1.3-1.6,2.7-3.2,4.2-4.7c1.5-1.5,3-2.9,4.6-4.3s3.1-2.8,4.5-4.1
			c1.5-1.4,2.9-2.8,4.2-4.3c2.6-3,4.7-6.4,6.2-10c1.6-3.7,2.9-7.5,3.8-11.4c1-3.9,1.9-8,2.9-12c1-4.1,2.2-8.1,3.6-12.1
			c1.5-4,3.5-7.8,5.9-11.3c2.4-3.5,5.2-6.7,8.3-9.6l1.1-1.1l1.2-1.1c0.8-0.7,1.6-1.4,2.4-2.1c1.6-1.3,3.2-2.6,4.9-3.9
			c3.3-2.5,6.7-4.9,10.1-7.3s6.7-4.7,10-7.2c3.3-2.4,6.5-5,9.5-7.8c1.5-1.4,2.9-2.9,4.3-4.4c1.4-1.5,2.7-3.1,3.9-4.7l0.2,0.1
			c-2.3,3.4-5,6.6-7.9,9.5c-2.9,2.9-6,5.6-9.3,8.2c-6.5,5.1-13.3,9.8-19.8,14.9c-3.3,2.5-6.4,5.2-9.3,8.1c-3,2.9-5.6,6-7.9,9.4
			c-2.3,3.4-4.2,7.1-5.6,10.9c-1.4,3.9-2.6,7.8-3.5,11.8c-1,4-1.9,8-2.9,12c-1,4-2.4,7.9-4,11.7c-1.7,3.8-3.9,7.3-6.7,10.4
			c-2.8,3-5.8,5.8-9,8.5c-1.5,1.4-3.1,2.7-4.6,4.2c-1.5,1.4-2.9,2.9-4.2,4.5c-2.7,3.1-5,6.5-7,10.1c-4.1,7.2-6.8,15-8,23.2
			L-2392,1635.3z"/>
		<path class="st2" d="M-2338.5,1636c-1,0.5-2.1,0.9-3.2,1.2c0,0-0.5,1.4-0.9,2.9C-2341,1639-2339.6,1637.6-2338.5,1636z"/>
		<path class="st1" d="M-2573.7,1774.6c3.5-2.8,8-4,12.4-4.5c4.4-0.4,8.9-0.2,13.4-0.3c5-0.2,9.9-0.9,14.7-2.2
			c3.1-0.8,6.2-1.9,8.2-4.4l-5.9-40.4c-1.9-13.7-8.7-19.4-8.7-19.4c-5.7-6-15.9-4.9-15.9-4.9s-7.6-0.1-13.1,12.7
			c0,0-12,22.9-5.2,63.4"/>
		<path class="st2" d="M-2573.7,1774.5c1.7-1.4,3.5-2.4,5.6-3.1c2-0.7,4.1-1.2,6.3-1.5c4.3-0.5,8.6-0.4,12.8-0.5
			c4.2-0.1,8.5-0.6,12.6-1.5c2.1-0.4,4.1-1,6.1-1.7c2-0.6,3.7-1.8,5.1-3.3l-0.1,0.4c-0.7-5.2-1.4-10.3-2.1-15.5l-1-7.7l-1.1-7.7
			c-0.4-2.6-0.7-5.2-1.1-7.7c-0.2-1.3-0.4-2.6-0.6-3.9c-0.2-1.3-0.5-2.5-0.9-3.8c-0.7-2.5-1.7-4.9-2.9-7.2c-0.6-1.1-1.3-2.2-2.1-3.3
			c-0.7-1-1.6-2-2.5-2.8l0,0l0,0c-1-1-2.1-1.8-3.3-2.5c-1.2-0.7-2.6-1.2-3.9-1.5c-1.4-0.4-2.8-0.6-4.2-0.7c-1.4-0.1-2.8-0.1-4.2,0
			h-0.1c-0.4,0-0.7,0.1-1.1,0.2c-0.4,0.1-0.7,0.2-1.1,0.3c-0.7,0.3-1.4,0.6-2,1c-1.3,0.8-2.5,1.8-3.5,3c-2,2.4-3.7,5-4.8,7.9v0l0,0
			c-0.6,1.2-1.1,2.4-1.5,3.6s-0.9,2.5-1.3,3.8c-0.8,2.5-1.5,5.1-2,7.7c-0.6,2.6-1,5.2-1.4,7.9c-0.4,2.6-0.6,5.3-0.8,8
			c-0.4,5.3-0.4,10.7-0.2,16.1C-2575.1,1763.9-2574.5,1769.3-2573.7,1774.5l-0.1,0.1c-1-5.3-1.7-10.6-2.1-16
			c-0.2-2.7-0.3-5.4-0.3-8.1c0-2.7,0-5.4,0.2-8.1c0.2-2.7,0.4-5.4,0.7-8.1c0.3-2.7,0.8-5.3,1.3-8c0.5-2.7,1.2-5.3,2-7.9
			c0.4-1.3,0.8-2.6,1.3-3.8c0.5-1.3,1-2.5,1.6-3.8l0,0c1.2-3,3-5.8,5.1-8.2c1.1-1.2,2.4-2.3,3.8-3.1c0.7-0.4,1.5-0.8,2.2-1.1
			c0.4-0.1,0.8-0.3,1.2-0.3c0.4-0.1,0.9-0.2,1.3-0.2h-0.1c1.5-0.1,2.9-0.1,4.4,0c1.5,0.1,2.9,0.4,4.3,0.8c1.4,0.4,2.8,0.9,4.1,1.6
			c1.3,0.7,2.5,1.6,3.5,2.7l0,0c1,0.9,1.8,1.9,2.6,3c0.8,1.1,1.4,2.2,2,3.4c1.2,2.3,2.2,4.8,2.8,7.3c0.3,1.3,0.6,2.5,0.9,3.8
			c0.2,1.3,0.4,2.6,0.6,3.9c0.4,2.6,0.7,5.2,1.1,7.7l1.2,7.7l1.2,7.7c0.8,5.1,1.6,10.3,2.4,15.4l0,0.2l-0.1,0.2
			c-0.7,0.9-1.6,1.6-2.5,2.2c-0.9,0.6-1.9,1.1-3,1.4c-1,0.4-2.1,0.7-3.1,0.9c-1,0.3-2.1,0.5-3.1,0.7c-4.2,0.9-8.5,1.3-12.8,1.4
			c-4.3,0.1-8.5-0.2-12.7,0.2c-2.1,0.2-4.2,0.6-6.2,1.3C-2570,1772.4-2571.9,1773.3-2573.7,1774.5L-2573.7,1774.5z"/>
		<path class="st5" d="M-2558.3,1774.1"/>
		<path class="st2" d="M-2393.5,1669.6c0,0-0.4,0-1.6,0.7l1.7,1.3L-2393.5,1669.6z"/>
		<path class="st2" d="M-2397.9,1675.5c-0.5,1.7-0.8,3.4-1,5.1l2.2-3.5L-2397.9,1675.5z"/>
		<path class="st1" d="M-2351.6,1680.2l-11.8,8.2c-6.5,4.3-16.8,3.4-20.5,1.6c-7.1-3.4-11.6-12.1-19-21c-1.6-2-5.1-2.9-5.1-2.9
			c-1.9-0.1-2.4-1.2-2.4-1.2l-3.5-5.7c-0.8-1.8,1-1.4,1-1.4l10.7,7.5c0,0,22.1,16.1,29.5,16.4l14.6-15.6"/>
		<path class="st2" d="M-2351.6,1680.3c-1.2,0.9-2.3,1.7-3.5,2.6c-1.2,0.9-2.4,1.7-3.5,2.6l-3.6,2.6c-1.2,0.9-2.5,1.7-3.8,2.3
			c-1.4,0.6-2.8,1-4.3,1.3c-1.5,0.3-2.9,0.4-4.4,0.5c-1.5,0-3,0-4.4-0.2c-1.5-0.2-3-0.5-4.4-1.1l-0.5-0.2c-0.2-0.1-0.3-0.2-0.5-0.3
			c-0.3-0.2-0.7-0.4-1-0.6l-0.9-0.6c-0.3-0.2-0.6-0.5-0.9-0.7c-0.6-0.4-1.1-1-1.7-1.5c-0.3-0.3-0.5-0.5-0.8-0.8
			c-0.3-0.3-0.5-0.5-0.8-0.8c-1.9-2.2-3.7-4.5-5.4-6.9c-1.7-2.4-3.4-4.7-5.2-7c-0.4-0.6-0.9-1.1-1.4-1.7c-0.2-0.3-0.5-0.6-0.7-0.8
			c-0.1-0.1-0.3-0.2-0.4-0.4c-0.1-0.1-0.3-0.2-0.4-0.3c-1.2-0.8-2.5-1.4-3.9-1.8l0,0c-0.2,0-0.5,0-0.7-0.1c-0.2,0-0.5-0.1-0.7-0.2
			c-0.2-0.1-0.5-0.2-0.7-0.4c-0.2-0.2-0.4-0.4-0.5-0.6l0,0l-3.6-5.7l0,0l0,0l-0.1-0.3c0-0.1-0.1-0.2-0.1-0.3c-0.1-0.3,0-0.6,0.1-0.9
			c0.2-0.3,0.4-0.4,0.8-0.5c0.2,0,0.5,0,0.7,0l0.1,0l0.1,0.1c3.2,2.2,6.5,4.4,9.7,6.7c3.2,2.3,6.4,4.5,9.7,6.6
			c1.6,1.1,3.3,2.1,5,3.1c1.7,1,3.3,2,5.1,3c1.7,1,3.4,1.9,5.2,2.7c0.9,0.4,1.8,0.8,2.7,1.1c0.9,0.3,1.8,0.5,2.7,0.6l-0.4,0.1
			l3.7-3.9l3.7-3.8c1.2-1.3,2.5-2.6,3.7-3.8l3.7-3.8l0.1,0.1l-3.5,4c-1.2,1.3-2.4,2.7-3.6,4l-3.6,4l-3.6,3.9l-0.1,0.2l-0.2,0
			c-1-0.1-2-0.3-3-0.6c-1-0.3-1.9-0.7-2.8-1.1c-1.8-0.8-3.6-1.7-5.3-2.6c-3.5-1.9-6.8-4-10.1-6.1c-3.3-2.2-6.5-4.4-9.7-6.7
			c-3.2-2.3-6.4-4.6-9.6-6.9l0.2,0.1c-0.1,0-0.3,0-0.4,0c-0.1,0-0.2,0-0.2,0.1c0,0.1,0,0.2,0,0.3c0,0.1,0,0.2,0.1,0.2l0.1,0.2l0,0
			l3.4,5.8l0,0l0,0c0.1,0.2,0.2,0.3,0.4,0.4c0.2,0.1,0.3,0.2,0.5,0.3c0.2,0.1,0.4,0.2,0.6,0.2c0.2,0,0.4,0.1,0.7,0.1h0
			c0.7,0.2,1.4,0.5,2.1,0.8c0.7,0.3,1.3,0.7,1.9,1.1c0.1,0.1,0.3,0.2,0.4,0.3c0.1,0.1,0.3,0.2,0.4,0.4c0.3,0.3,0.5,0.6,0.7,0.8
			c0.5,0.6,0.9,1.1,1.4,1.7c1.8,2.3,3.6,4.6,5.3,7c1.7,2.3,3.6,4.6,5.6,6.7c0.2,0.3,0.5,0.5,0.8,0.8s0.5,0.5,0.8,0.7
			c0.6,0.5,1.1,0.9,1.7,1.4c0.6,0.4,1.2,0.8,1.8,1.2c0.3,0.2,0.6,0.3,0.9,0.5c0.2,0.1,0.3,0.2,0.5,0.2l0.5,0.2
			c1.3,0.5,2.7,0.8,4.1,1c1.4,0.2,2.9,0.3,4.3,0.3c1.4,0,2.9-0.2,4.3-0.4c1.4-0.2,2.8-0.6,4.1-1.1c1.3-0.5,2.6-1.2,3.8-2.1l3.6-2.4
			c1.2-0.8,2.4-1.6,3.7-2.4s2.4-1.6,3.7-2.4L-2351.6,1680.3z"/>
		<path class="st1" d="M-2341.2,1653c-6.8-3-19.2,14.8-19.2,14.8l-12.2,14l-20.8-12c0,2.8-5.3,10.5-5.3,10.5l-0.1,1.2
			c0,3.8,0.3,8.3,3.4,10.5c2.9,2,6.8,1.1,10.3,0.9c3.4-0.2,6.9,0.4,10.1,1.6c1.8,0.7,3.6,1.7,5.5,1.7c2.6,0.1,5-1.5,7.1-3.2
			c2.5-2,7.1-6.2,7.1-6.2s8-9,11.1-13.6l4-5.5C-2332.7,1656.2-2341.2,1653-2341.2,1653z"/>
		<path class="st2" d="M-2341.3,1653.1c-1-0.4-2.1-0.4-3.1-0.1c-1,0.3-2,0.7-2.9,1.3c-1.8,1.2-3.4,2.5-4.9,4
			c-1.5,1.5-2.9,3.1-4.2,4.7c-1.3,1.6-2.6,3.3-3.8,5.1l0,0l0,0c-2,2.4-4,4.7-6,7.1l-6.1,7l-0.3,0.4l-0.4-0.2l-5.2-3l-5.2-3
			l-10.4-6.1l0.8-0.4c0,0.5-0.1,1.1-0.3,1.6c-0.2,0.5-0.4,1-0.6,1.4c-0.4,0.9-0.9,1.8-1.4,2.7c-1,1.7-2.1,3.4-3.2,5l0.1-0.2
			l-0.1,1.2v0c-0.1,2.3,0.1,4.6,0.7,6.8c0.3,1.1,0.9,2,1.7,2.9c0.8,0.8,1.8,1.4,2.9,1.6c1.1,0.3,2.2,0.4,3.4,0.3
			c1.1,0,2.3-0.2,3.5-0.2c2.3-0.2,4.7-0.1,7,0.3c1.1,0.2,2.3,0.5,3.4,0.9c1.1,0.4,2.2,0.8,3.2,1.3c1,0.4,2.2,0.7,3.3,0.7
			c1.1,0,2.2-0.3,3.2-0.8c1-0.5,2-1.1,2.9-1.8c0.9-0.7,1.8-1.4,2.6-2.2c1.7-1.5,3.4-3.1,5.1-4.6l0,0c2.3-2.6,4.5-5.2,6.8-7.9
			c1.1-1.3,2.2-2.7,3.2-4c0.5-0.7,1-1.4,1.5-2.1l1.6-2.1l1.6-2.1l0.4-0.5c0.1-0.2,0.3-0.3,0.4-0.5c0.2-0.4,0.5-0.7,0.7-1.1
			c0.2-0.4,0.4-0.7,0.6-1.1l0.3-0.6l0.3-0.6c0.2-0.4,0.3-0.8,0.5-1.2c0.1-0.4,0.3-0.8,0.4-1.2c0.5-1.7,0.4-3.4-0.2-5
			C-2338.4,1655-2339.7,1653.8-2341.3,1653.1z M-2341.2,1653c1.6,0.7,2.9,2,3.6,3.6c0.3,0.8,0.5,1.7,0.6,2.6c0,0.9-0.1,1.8-0.3,2.6
			c-0.1,0.4-0.2,0.8-0.3,1.3c-0.1,0.4-0.3,0.8-0.4,1.2l-0.3,0.6l-0.3,0.6c-0.2,0.4-0.4,0.8-0.6,1.2s-0.4,0.8-0.7,1.1
			c-0.2,0.4-0.5,0.7-0.7,1.1l-1.5,2.1l-1.5,2.1c-0.5,0.7-1,1.4-1.5,2.2c-1,1.4-2.1,2.8-3.2,4.1c-2.2,2.7-4.4,5.3-6.8,7.9l0,0l0,0
			c-1.7,1.5-3.5,3.1-5.3,4.5c-0.9,0.7-1.8,1.5-2.7,2.2c-0.9,0.7-2,1.3-3,1.8c-1.1,0.5-2.3,0.8-3.5,0.7c-1.2-0.1-2.3-0.4-3.4-0.9
			c-1.1-0.4-2.1-0.9-3.2-1.3c-1.1-0.4-2.2-0.7-3.3-0.9c-2.3-0.4-4.6-0.5-6.9-0.3c-1.1,0.1-2.3,0.2-3.5,0.3c-1.2,0.1-2.4,0-3.5-0.3
			c-1.2-0.3-2.3-0.9-3.1-1.7c-0.8-0.9-1.5-1.9-1.9-3c-0.4-1.1-0.6-2.3-0.7-3.5c-0.1-1.2-0.2-2.3-0.2-3.5v0l0.1-1.2l0-0.1l0.1-0.1
			c1.1-1.6,2.1-3.3,3.1-5c0.5-0.9,0.9-1.7,1.3-2.6c0.2-0.4,0.4-0.9,0.5-1.3c0.1-0.4,0.2-0.9,0.3-1.3l0-0.9l0.7,0.4l10.4,6l5.2,3
			l5.2,3l-0.7,0.1l6.1-7c2.1-2.3,4.1-4.6,6.2-6.9l0,0c1.3-1.7,2.6-3.4,4-5c1.4-1.6,2.9-3.1,4.4-4.6c0.8-0.7,1.6-1.4,2.4-2.1
			c0.8-0.7,1.7-1.3,2.6-1.8c0.9-0.6,1.9-1,2.9-1.3C-2343.3,1652.5-2342.2,1652.5-2341.2,1653L-2341.2,1653z"/>
		<path class="st1" d="M-2508.8,1754.5l16.4,7.4h12.6c0,0-2.6,2.8-9.6,4.5c-1.7,0.4-3.5,0.5-5.2,0.2l-18.4-3.2"/>
		<path class="st2" d="M-2508.7,1754.4c0.7,0.2,1.4,0.5,2.1,0.8c0.7,0.3,1.4,0.5,2.1,0.8c1.4,0.6,2.8,1.1,4.2,1.7
			c1.4,0.6,2.8,1.2,4.1,1.8c1.4,0.6,2.7,1.3,4.1,1.9l-0.2,0l3.2,0.1c1.1,0,2.1,0.1,3.2,0.1c1.1,0,2.1,0,3.2,0s2.1,0,3.2-0.1l0.6,0
			l-0.4,0.4c-2.2,2-4.8,3.4-7.7,4.3c-0.7,0.2-1.4,0.4-2.1,0.6c-0.7,0.2-1.5,0.3-2.2,0.4c-0.8,0.1-1.5,0-2.3,0
			c-0.8-0.1-1.5-0.2-2.2-0.3c-2.8-0.5-5.7-1-8.5-1.6c-2.8-0.6-5.7-1.2-8.5-1.8l0-0.1c2.9,0.3,5.7,0.7,8.6,1.1
			c2.9,0.4,5.7,0.8,8.6,1.3c0.7,0.1,1.4,0.3,2.1,0.3c0.7,0.1,1.4,0.1,2.1,0.1c0.7,0,1.4-0.1,2.1-0.3c0.7-0.2,1.4-0.3,2.1-0.5
			c1.4-0.4,2.7-0.9,4-1.5c1.3-0.6,2.5-1.3,3.6-2.2l0.2,0.4c-1.1,0-2.1-0.1-3.2-0.1c-1.1,0-2.1,0-3.2,0c-1.1,0-2.1,0.1-3.2,0.1
			l-3.2,0.1h-0.1l-0.1,0c-1.4-0.6-2.8-1.1-4.1-1.8c-1.4-0.6-2.7-1.2-4.1-1.9c-1.4-0.6-2.7-1.3-4-2c-0.7-0.3-1.3-0.7-2-1
			C-2507.4,1755.2-2508.1,1754.9-2508.7,1754.4L-2508.7,1754.4z"/>
		<path class="st2" d="M-2555.4,1714.5c0,0-20.8,39,4.6,43.5"/>
		<path class="st1" d="M-2559.1,1745.3c0,0-2.7-17.6,1.5-31.3c0.6-2,1.7-3.8,3.3-5.1c1.5-1.4,3.6-2.1,5.6-1.7c2,0.5,3.7,2,4.2,4
			c1.5,5,5.4,18.4,5.9,30.8c0,0,24.6,4.5,33.5,10.8c0.7,1.2,1.1,2.5,1.2,3.9c0,0,1.2,5.8-2.9,8.4c-3.3,2.2-7.8-0.4-11.7-0.6
			c-4.3-0.3-8.9,1.4-12.6-0.7c-1.5-0.9-2.7-2.3-4.1-3.2c-3.3-2.2-7.5-1.8-11.4-1.7h-0.1c-5.4,0-10.2-3.8-11.4-9.1L-2559.1,1745.3z"
			/>
		<path class="st2" d="M-2559.2,1745.3c-0.2-1.7-0.4-3.4-0.5-5.1c-0.1-1.7-0.2-3.4-0.3-5.1c-0.2-3.4-0.1-6.8,0.1-10.2
			c0.2-3.4,0.8-6.8,1.6-10.1c0.1-0.4,0.2-0.8,0.3-1.2c0.1-0.4,0.3-0.8,0.5-1.2c0.4-0.8,0.8-1.6,1.3-2.3c1.1-1.5,2.5-2.6,4.2-3.2
			c1.8-0.6,3.7-0.4,5.3,0.6c0.8,0.5,1.4,1.2,1.9,2c0.2,0.4,0.4,0.8,0.6,1.2c0.1,0.2,0.1,0.4,0.2,0.6l0.2,0.6
			c0.9,3.3,1.8,6.6,2.5,9.9c1.5,6.6,2.5,13.4,2.9,20.1l-0.1-0.2c2.9,0.5,5.8,1.2,8.7,1.8c2.9,0.6,5.7,1.4,8.6,2.1s5.7,1.7,8.5,2.7
			c1.4,0.5,2.8,1.1,4.1,1.7l2,1l1.9,1.2l0.1,0l0.1,0.1c0.2,0.3,0.4,0.6,0.5,1c0.1,0.3,0.3,0.7,0.4,1c0.2,0.7,0.4,1.4,0.4,2.1l0-0.1
			c0.1,0.8,0.2,1.6,0.2,2.3c0,0.8-0.1,1.6-0.3,2.3c-0.4,1.6-1.3,3-2.5,4c-0.6,0.5-1.4,0.9-2.2,1.1c-0.8,0.2-1.6,0.3-2.4,0.2
			c-0.8-0.1-1.5-0.2-2.3-0.3c-0.7-0.2-1.5-0.3-2.2-0.5c-0.7-0.2-1.4-0.3-2.2-0.4c-0.7-0.1-1.4-0.2-2.1-0.2c-1.4,0-2.9,0.1-4.4,0.3
			c-1.5,0.2-3.1,0.1-4.6-0.1c-0.8-0.1-1.6-0.4-2.3-0.7c-0.4-0.2-0.7-0.4-1-0.6c-0.3-0.2-0.6-0.5-0.9-0.7c-1-1-2.2-1.9-3.4-2.7
			c-0.6-0.3-1.3-0.6-2-0.8c-0.7-0.2-1.4-0.3-2.1-0.4c-1.5-0.2-2.9-0.2-4.4-0.2c-0.7,0-1.5,0-2.2,0c-0.8,0-1.5-0.1-2.3-0.3
			c-1.5-0.3-2.9-0.9-4.2-1.8c-1.2-0.9-2.3-1.9-3.2-3.2c-0.8-1.2-1.4-2.6-1.8-4.1L-2559.2,1745.3z M-2559.1,1745.3l1,4.3
			c0.3,1.4,1,2.8,1.8,4c0.9,1.2,1.9,2.2,3.2,3c1.2,0.8,2.6,1.3,4.1,1.6c0.7,0.1,1.4,0.2,2.2,0.2c0.7,0,1.5,0,2.2-0.1
			c1.5-0.1,3-0.1,4.5,0.1c1.5,0.1,3.1,0.5,4.5,1.2c1.3,0.8,2.5,1.7,3.6,2.8c0.5,0.4,1.1,0.8,1.8,1.1c0.6,0.3,1.3,0.5,2,0.6
			c1.4,0.2,2.9,0.2,4.3,0c1.5-0.1,3-0.3,4.5-0.3c0.8,0,1.6,0.1,2.3,0.2c0.8,0.1,1.5,0.3,2.2,0.5c1.4,0.4,2.8,0.7,4.3,0.8
			c0.7,0.1,1.4,0,2-0.1c0.7-0.1,1.3-0.4,1.8-0.9c1.1-0.9,1.9-2.1,2.2-3.4c0.2-0.7,0.3-1.4,0.3-2.1c0-0.7,0-1.4-0.1-2.1l0,0v0
			c0-0.6-0.2-1.3-0.3-1.9c-0.1-0.3-0.2-0.6-0.3-0.9c-0.1-0.3-0.3-0.6-0.4-0.9l0.1,0.1c-2.4-1.6-5.1-2.9-7.8-3.9
			c-2.7-1.1-5.5-2-8.3-2.9c-2.8-0.8-5.7-1.6-8.5-2.3c-2.9-0.7-5.7-1.3-8.6-1.9l-0.1,0l0-0.1c-0.4-6.8-1.4-13.5-3.1-20
			c-0.8-3.3-1.7-6.5-2.7-9.8l-0.2-0.6c-0.1-0.2-0.1-0.4-0.2-0.6c-0.1-0.4-0.3-0.7-0.5-1c-0.4-0.7-1-1.2-1.6-1.6
			c-1.3-0.8-3-1-4.5-0.5c-0.7,0.3-1.4,0.7-2.1,1.2c-0.6,0.5-1.2,1.1-1.7,1.7c-0.5,0.6-0.9,1.3-1.3,2.1c-0.2,0.4-0.3,0.7-0.4,1.1
			c-0.1,0.4-0.2,0.8-0.4,1.2c-0.9,3.2-1.6,6.6-1.9,9.9C-2560,1731.8-2559.9,1738.6-2559.1,1745.3L-2559.1,1745.3z"/>
		<path class="st2" d="M-2313.8,1675.6c-0.1-1.1-7-2-7.9-2.2c-6-1.4-11.4-5-11.8-11.7c-0.2-3.4,2.2-7.2,0.1-10.3
			c-5.1-7.7-4.3-11.1-3.5-14.9c0.6-3.1,3.8-4.4,3.7-6.2c-0.1-1.6-2.7-0.8-2.7-0.8c-3.2,0.2-2.5-4.4-2.5-4.4c-6,3.5-8.4,1-8.8,1
			c0,0-0.2-9.9,11.7-8.7c3.8,0.9,6.8,4,7.6,7.9c0,3.7,2.1,6.9,4.1,9.8c1.9,2.7,4.7,4.1,5.6,7.6c0.4,1.8,0.4,3.7,0.8,5.5
			c0.7,2.8,2.5,5.3,3.1,8.2c0.8,3.5-0.3,7.1-0.3,10.6C-2314.4,1670-2314.2,1672.8-2313.8,1675.6z"/>
		
			<rect x="-2270.6" y="1615.9" transform="matrix(0.9472 -0.3206 0.3206 0.9472 -640.3477 -636.8246)" class="st1" width="33.3" height="20.2"/>
		<path class="st2" d="M-2234.9,1630.3c-2.5,1-5.1,1.9-7.6,2.9c-2.6,1-5.2,1.9-7.9,2.8c-2.6,0.9-5.3,1.9-8,2.7
			c-2.7,0.9-5.4,1.7-8.1,2.5l-0.3,0.1l-0.1-0.3c-0.5-1.6-1-3.2-1.5-4.8c-0.5-1.6-1-3.2-1.6-4.8c-0.5-1.6-1.1-3.2-1.7-4.8l-1.7-4.7
			l-0.1-0.3l0.3-0.1c2.6-1,5.2-1.9,7.8-2.8c2.6-0.9,5.2-1.8,7.9-2.8s5.2-1.8,7.9-2.7c2.6-0.9,5.3-1.8,7.9-2.6l0.6-0.2l0.2,0.6
			c1,3.3,2.1,6.6,3.1,9.8L-2234.9,1630.3z M-2235,1630.3l-3.6-9.6c-1.2-3.1-2.3-6.2-3.4-9.4l0.8,0.4c-2.6,0.9-5.2,1.8-7.9,2.7
			c-2.6,0.9-5.3,1.8-7.9,2.6s-5.3,1.7-7.9,2.6c-2.6,0.9-5.3,1.7-8,2.5l0.2-0.4l1.5,4.8c0.5,1.6,1,3.2,1.6,4.8
			c0.5,1.6,1.1,3.2,1.7,4.8c0.6,1.6,1.2,3.2,1.7,4.7l-0.4-0.2c2.6-0.9,5.2-1.9,7.7-2.8c2.6-0.9,5.2-1.7,7.8-2.6s5.3-1.7,7.9-2.5
			L-2235,1630.3z"/>
		<path class="st1" d="M-2241.4,1611.1l-12.8,14.2l-18.8-3.5l13-4.4"/>
		<path class="st2" d="M-2241.4,1611.2c-1,1.3-2,2.5-3,3.7s-2.1,2.4-3.1,3.6c-1,1.2-2.1,2.4-3.2,3.6c-1.1,1.2-2.2,2.3-3.2,3.5
			l-0.2,0.2l-0.2,0c-1.6-0.3-3.1-0.6-4.7-1l-4.7-1c-1.6-0.3-3.1-0.6-4.7-0.9l-4.7-0.7l-1.2-0.2l1.2-0.4c1.1-0.4,2.1-0.8,3.2-1.1
			c1.1-0.4,2.2-0.7,3.3-1.1c1.1-0.3,2.2-0.7,3.3-1c1.1-0.3,2.2-0.6,3.3-0.9l0,0.1c-1.1,0.4-2.1,0.9-3.2,1.3
			c-1.1,0.4-2.1,0.8-3.2,1.2c-1.1,0.4-2.2,0.8-3.2,1.1s-2.2,0.7-3.3,1l0-0.6l4.7,1c1.6,0.3,3.1,0.6,4.7,0.9l4.7,0.7
			c1.6,0.3,3.1,0.5,4.7,0.8l-0.4,0.1c1.1-1.2,2.1-2.4,3.2-3.6c1.1-1.2,2.1-2.4,3.2-3.5c1.1-1.2,2.2-2.3,3.3-3.5
			S-2242.6,1612.2-2241.4,1611.2L-2241.4,1611.2z"/>
		
			<rect x="-2278.5" y="1612.9" transform="matrix(0.9472 -0.3206 0.3206 0.9472 -639.7783 -639.5084)" class="st1" width="33.3" height="20.2"/>
		<path class="st2" d="M-2242.7,1627.2c-2.5,1-5.1,1.9-7.6,2.9c-2.6,1-5.2,1.9-7.9,2.8s-5.3,1.9-8,2.7c-2.7,0.9-5.4,1.7-8.1,2.5
			l-0.3,0.1l-0.1-0.3c-0.5-1.6-1-3.2-1.5-4.8c-0.5-1.6-1-3.2-1.6-4.8c-0.5-1.6-1.1-3.2-1.7-4.8l-1.7-4.8l-0.1-0.3l0.3-0.1
			c2.6-1,5.2-1.9,7.8-2.8c2.6-0.9,5.2-1.8,7.9-2.8c2.6-0.9,5.2-1.8,7.9-2.7c2.6-0.9,5.3-1.8,7.9-2.6l0.6-0.2l0.2,0.6
			c1,3.3,2.1,6.6,3.1,9.8L-2242.7,1627.2z M-2242.8,1627.2l-3.6-9.6c-1.2-3.1-2.3-6.2-3.4-9.4l0.8,0.4c-2.6,0.9-5.2,1.8-7.9,2.7
			c-2.6,0.9-5.3,1.8-7.9,2.6c-2.6,0.9-5.3,1.7-7.9,2.6c-2.6,0.9-5.3,1.7-8,2.5l0.2-0.4l1.5,4.8c0.5,1.6,1,3.2,1.6,4.8
			c0.5,1.6,1.1,3.2,1.7,4.8c0.6,1.6,1.2,3.2,1.7,4.7l-0.4-0.2c2.6-0.9,5.2-1.9,7.7-2.8s5.2-1.7,7.8-2.6c2.6-0.9,5.3-1.7,7.9-2.5
			L-2242.8,1627.2z"/>
		<path class="st1" d="M-2249.3,1608.1l-12.8,14.2l-18.8-3.5l13-4.4"/>
		<path class="st2" d="M-2249.2,1608.1c-1,1.3-2,2.5-3,3.7c-1,1.2-2.1,2.4-3.1,3.6c-1,1.2-2.1,2.4-3.2,3.6s-2.2,2.3-3.2,3.5
			l-0.2,0.2l-0.2,0c-1.6-0.3-3.1-0.6-4.7-1l-4.7-1c-1.6-0.3-3.1-0.6-4.7-0.9l-4.7-0.7l-1.2-0.2l1.2-0.4c1.1-0.4,2.1-0.8,3.2-1.1
			c1.1-0.4,2.2-0.7,3.3-1.1c1.1-0.3,2.2-0.7,3.3-1c1.1-0.3,2.2-0.6,3.3-0.9l0,0.1c-1.1,0.4-2.1,0.9-3.2,1.3
			c-1.1,0.4-2.1,0.8-3.2,1.2c-1.1,0.4-2.2,0.8-3.2,1.1c-1.1,0.4-2.2,0.7-3.3,1l0-0.6l4.7,1c1.6,0.3,3.1,0.6,4.7,0.9l4.7,0.7
			c1.6,0.3,3.1,0.5,4.7,0.8l-0.4,0.1c1.1-1.2,2.1-2.4,3.2-3.6c1.1-1.2,2.1-2.4,3.2-3.5s2.2-2.3,3.3-3.5
			C-2251.5,1610.3-2250.4,1609.2-2249.2,1608.1L-2249.2,1608.1z"/>
		<path class="st2" d="M-2322.5,1506.2c1.2-3,5.2-4.5,7.4-4.2c0.1,0,0.3,0,0.4,0c3.6-0.2,7.1,1.4,9.4,4.2c1.6,1.9,3.3,3.8,6,3.9
			c0.8,0,2,0,2.3-0.5c0.3-0.8,0.2-1.7-0.2-2.5c-1.4-2.2-3-4.2-4.6-6.2c-2.2-2.7-1.9-6,0.2-10.2c0,0,17.4-27.5,22.3-31.1
			c2-1.3,4.1-2.4,6.3-3.3c0.8-0.3,2.3-0.8,2.7,0.1c0.6,0.8-0.3,2.1-0.8,2.8c-0.5,0.7-1,1.4-1.4,2.2c0.8-0.4,1.6-0.7,2.4-0.9
			c2.8-0.6,5.5-1.2,8.3-1.7c0.6-0.2,1.3,0.2,1.6,0.7c0.4,1-0.2,1.4-0.6,1.9c-0.7,0.6-1.4,1.2-2.1,1.7c-1.2,0.8-1.7,1.2-2.9,2
			c1,0,1.9-0.3,2.7-0.3c2.8-0.1,5.6-0.1,8.4,0c0.7,0.2,1.3,0.8,1.5,1.5c-0.1,0.7-0.5,1.4-1.1,1.8c-1.2,0.7-2.4,1.3-3.7,1.7
			c-2,0.8-4,1.6-6,2.4c0.3,0.2,0.6,0.3,1,0.3c3,0.1,5.9,0,8.9,0.4c0.8,0.1,2.4,0.1,2.2,2.1c-0.2,1-1.2,1.5-2,1.8
			c-1.6,0.6-3.3,1.1-5,1.5c2,0.5,4,1.2,6,1.9c0.8,0.4,2.3,1.8,1.5,2.8c-1,1.2-3.6,1.9-5,2.4c0.9,1,9.1,8.8,11.3,12.4
			c0.9,1.2,1.4,2.7,1.4,4.3c-0.2,2.5-2.7,4.2-5.1,5.1c-2.3,0.9-4.7,1.5-6.8,2.7s-4.1,3.1-4.4,5.6c0,0.7-0.1,1.4-0.3,2
			c-0.5,1.4-1.9,2.1-3,3c-1.1,0.9-1.9,2.8-0.8,3.7c1.6,2.4,2.6,4.1,4.7,5.7c1.3,1,2.8,1.8,4.3,2.5c5.1,2.1,7.2,2.4,12.6,1.6
			c1.1-0.1,2.6-0.3,4.7-0.6c0.4-0.1,0.6,0.5,0.4,0.8c-1.2,1.7-3.1,3-5.1,3.6c2.2,1.4,8.1,2.3,10.3,2.5l7.1,0.6c1.2,0.1,0,1.6-0.4,2
			c-0.9,0.6-1.7,1.2-2.5,1.9c-0.9,0.9-1.1,2.3-1.8,3.3c-1.3,1.9-3.9,2.4-6.1,2.3c-8.8-0.4-10.6-7.2-19-9.7c0,0-5-1.4-14.7-1.1
			c0,0-19.4,0.9-34.1-11.9c0,0-7.9-8.2-14.4-9.1C-2323.4,1517.7-2324.4,1511.1-2322.5,1506.2z"/>
		<path class="st2" d="M-2322.5,1506.2c0.6-1.4,1.7-2.5,3.1-3.2c0.7-0.4,1.4-0.6,2.1-0.8c0.7-0.2,1.5-0.3,2.2-0.2h0
			c1.7-0.1,3.5,0.2,5.1,0.8c1.6,0.6,3.1,1.7,4.2,3c1,1.4,2.3,2.7,3.8,3.6c0.8,0.4,1.6,0.7,2.5,0.7c0.4,0,0.9,0,1.3,0
			c0.2,0,0.4-0.1,0.7-0.2c0.1,0,0.2-0.1,0.3-0.2c0.1-0.1,0.1-0.2,0.2-0.3c0.1-0.4,0.2-0.9,0.1-1.3c-0.1-0.4-0.2-0.9-0.5-1.2
			c-0.5-0.7-1-1.5-1.5-2.2c-1-1.4-2.1-2.8-3.2-4.2c-0.5-0.7-0.9-1.5-1.1-2.3c-0.2-0.8-0.2-1.7-0.1-2.6c0.3-1.7,0.8-3.4,1.7-4.9l0,0
			c2.2-3.4,4.4-6.8,6.6-10.1c2.2-3.4,4.5-6.7,6.9-10c1.2-1.6,2.4-3.3,3.6-4.9c1.2-1.6,2.5-3.2,3.8-4.7c1.4-1.4,3.1-2.6,4.9-3.4
			c0.9-0.4,1.8-0.8,2.8-1.2c0.4-0.2,0.9-0.3,1.4-0.4c0.5-0.1,1,0,1.2,0.4l0,0l0,0c0.2,0.4,0.2,0.8,0,1.2c-0.2,0.4-0.4,0.8-0.7,1.2
			c-0.3,0.4-0.6,0.8-0.8,1.2l-0.8,1.2l-0.2,0.4l0.4-0.2c0.8-0.4,1.6-0.7,2.5-0.9l2.6-0.5l5.2-1.1c0.2-0.1,0.4-0.1,0.6-0.1
			c0.2,0,0.4,0,0.6,0.1c0.2,0.1,0.3,0.2,0.5,0.4c0.1,0.2,0.2,0.4,0.2,0.6c0.1,0.4-0.1,0.8-0.4,1.1c-0.2,0.2-0.3,0.3-0.5,0.5
			c-0.2,0.1-0.3,0.3-0.5,0.4c-1.4,1.1-2.9,2.1-4.3,3.1l-0.3,0.2l0.3,0c1.1,0,2.2-0.4,3.3-0.3c1.1,0,2.2-0.1,3.3-0.1
			c1.1,0,2.2,0,3.3,0l0.8,0c0.3,0,0.5,0,0.8,0.1c0.5,0.2,0.9,0.6,1.1,1.1c0.1,0.2,0.1,0.5,0,0.7c-0.1,0.2-0.2,0.5-0.4,0.7
			c-0.2,0.2-0.3,0.4-0.6,0.6c-0.2,0.1-0.5,0.3-0.7,0.4c-1,0.5-2,0.9-3,1.3l-6.1,2.5l-0.1,0l0.1,0.1c0.2,0.2,0.5,0.3,0.8,0.3
			c0.3,0,0.6,0,0.8,0l1.7,0c1.1,0,2.3,0,3.4,0.1s2.2,0.1,3.4,0.3c0.6,0,1.1,0.2,1.5,0.5c0.4,0.4,0.5,1,0.4,1.5v0
			c-0.2,0.6-0.6,1.2-1.2,1.4c-0.6,0.3-1.2,0.5-1.9,0.7c-1.3,0.4-2.6,0.7-3.9,1.1l-0.2,0.1l0.2,0.1c1.2,0.4,2.5,0.7,3.7,1.1
			c0.6,0.2,1.2,0.4,1.8,0.7c0.6,0.2,1.1,0.6,1.5,1.1c0.2,0.2,0.4,0.5,0.5,0.8c0.1,0.3,0.1,0.6,0,0.9c-0.2,0.3-0.4,0.5-0.7,0.6
			c-0.3,0.2-0.5,0.4-0.8,0.5c-1.2,0.5-2.4,1-3.6,1.4l-0.1,0l0.1,0.1c3.2,3.2,6.4,6.4,9.3,9.9c0.7,0.9,1.4,1.8,2,2.7
			c0.6,0.9,1.1,2,1.3,3.1c0.2,1.1-0.1,2.2-0.8,3.1c-0.7,0.9-1.6,1.6-2.5,2.1c-1,0.5-2,1-3.1,1.3c-1.1,0.4-2.2,0.7-3.2,1.1
			c-1.1,0.4-2.1,0.9-3.1,1.5c-1,0.6-1.8,1.4-2.5,2.4c-0.7,0.9-1.1,2.1-1.2,3.2c0,0.6-0.1,1.1-0.3,1.6c-0.2,0.5-0.5,0.9-1,1.3
			c-0.4,0.4-0.9,0.7-1.3,1c-0.5,0.3-0.9,0.7-1.3,1.2c-0.4,0.5-0.6,1-0.7,1.6c-0.1,0.6,0.1,1.3,0.5,1.7l0,0c0.8,1.3,1.7,2.6,2.7,3.8
			c1,1.2,2.3,2.2,3.6,3c0.7,0.4,1.4,0.8,2.1,1.1c0.7,0.3,1.4,0.6,2.2,0.9c1.5,0.6,3,1,4.5,1.3c1.6,0.2,3.2,0.2,4.7,0
			c1.6-0.2,3.1-0.4,4.7-0.6l1.2-0.2l0.6-0.1l0.1,0c0,0,0.1,0,0.1,0c0.1,0,0.1,0.1,0.1,0.1c0.1,0.1,0.1,0.2,0,0.4
			c-0.1,0.1-0.2,0.3-0.3,0.4c-0.2,0.3-0.5,0.6-0.8,0.9c-1.1,1-2.5,1.8-4,2.3l-0.4,0.1l0.3,0.2c1,0.6,2.1,1,3.2,1.2
			c1.1,0.3,2.2,0.5,3.3,0.7c1.1,0.2,2.2,0.4,3.3,0.5l3.4,0.3l3.3,0.3l0.8,0.1c0.3,0,0.5,0.1,0.5,0.2c0,0.2-0.1,0.5-0.2,0.7
			c-0.1,0.2-0.3,0.4-0.5,0.6c-0.8,0.7-1.9,1.2-2.7,2c-0.6,0.9-1.2,1.9-1.6,3c-0.5,0.9-1.4,1.7-2.4,2c-1,0.4-2.1,0.6-3.2,0.6
			c-2.2,0-4.4-0.5-6.4-1.5c-1.9-1.1-3.8-2.4-5.4-3.9c-1.7-1.4-3.7-2.6-5.7-3.6c-1-0.5-2.1-0.8-3.2-1c-1.1-0.2-2.2-0.4-3.3-0.5
			c-2.2-0.2-4.5-0.4-6.7-0.4h-1.7l-1.7,0c-1.1,0-2.2,0-3.3-0.1c-2.2-0.1-4.5-0.4-6.7-0.8c-4.4-0.8-8.7-2.1-12.8-3.9
			c-4.1-1.8-7.9-4.2-11.3-7.1v0c-1.9-1.9-4-3.6-6.1-5.2c-2.2-1.6-4.6-2.9-7.1-3.7c-0.7-0.1-1.3-0.3-2-0.5c-0.3-0.1-0.6-0.3-0.9-0.4
			c-0.3-0.2-0.6-0.4-0.8-0.6c-1-0.9-1.7-2.1-2.1-3.4C-2323.7,1511.5-2323.5,1508.7-2322.5,1506.2z M-2322.5,1506.2
			c-1,2.5-1.2,5.3-0.5,7.9c0.4,1.3,1.1,2.5,2.1,3.4c0.3,0.2,0.5,0.4,0.8,0.6c0.3,0.1,0.6,0.3,0.9,0.4c0.7,0.2,1.3,0.3,2,0.5
			c2.6,0.8,5,2.1,7.1,3.7c2.2,1.6,4.2,3.3,6.1,5.2l0,0c3.4,2.9,7.2,5.3,11.3,7.2c4.1,1.8,8.4,3.2,12.9,3.9c2.2,0.4,4.4,0.7,6.7,0.8
			c1.1,0.1,2.2,0.1,3.4,0.1l1.7,0h1.7c2.2,0,4.5,0.2,6.7,0.4c2.2,0.2,4.4,0.7,6.5,1.5c2,0.9,3.9,2.1,5.6,3.5
			c1.7,1.5,3.5,2.8,5.5,3.9c2,1,4.3,1.6,6.6,1.6c1.1,0,2.3-0.2,3.4-0.6c1.1-0.4,2-1.2,2.6-2.2c0.4-1,0.9-2,1.6-2.9
			c0.7-0.8,1.8-1.2,2.7-2c0.2-0.2,0.4-0.4,0.5-0.7c0.2-0.3,0.3-0.6,0.3-0.9c0-0.1-0.1-0.2-0.1-0.3c-0.1-0.1-0.1-0.1-0.2-0.2
			c-0.1-0.1-0.3-0.1-0.5-0.1l-0.8-0.1l-3.3-0.3l-3.3-0.3c-1.1-0.1-2.2-0.3-3.3-0.5s-2.2-0.4-3.3-0.7c-1.1-0.3-2.1-0.7-3.1-1.2l0,0.3
			c1.5-0.5,2.9-1.3,4.1-2.4c0.3-0.3,0.6-0.6,0.8-0.9c0.1-0.2,0.2-0.3,0.4-0.5c0.1-0.2,0.1-0.5-0.1-0.7c-0.1-0.1-0.2-0.2-0.3-0.2
			c-0.1,0-0.1,0-0.2,0l-0.2,0l-0.6,0.1l-1.2,0.2c-3.1,0.4-6.2,1-9.3,0.6c-1.5-0.2-3-0.7-4.5-1.2c-0.7-0.3-1.5-0.6-2.2-0.9
			c-0.7-0.3-1.4-0.7-2-1.1c-1.3-0.8-2.5-1.8-3.6-2.9c-1-1.2-1.9-2.5-2.7-3.8l0,0l0,0c-0.4-0.4-0.5-0.9-0.4-1.4
			c0.1-0.5,0.3-1,0.7-1.5c0.3-0.4,0.8-0.8,1.2-1.1c0.4-0.3,0.9-0.7,1.3-1.1c0.4-0.4,0.8-0.9,1-1.4c0.2-0.6,0.3-1.1,0.3-1.7
			c0.1-1.1,0.5-2.2,1.1-3.1c0.7-0.9,1.5-1.7,2.4-2.3c0.9-0.6,2-1.1,3-1.5c1-0.4,2.1-0.8,3.2-1.1c1.1-0.3,2.1-0.8,3.1-1.3
			c1-0.5,1.9-1.3,2.6-2.2c0.7-0.9,1-2.1,0.8-3.3c-0.2-1.1-0.7-2.2-1.3-3.1c-0.6-1-1.3-1.9-2.1-2.7c-2.9-3.5-6.2-6.6-9.4-9.8l0,0.1
			c1.2-0.4,2.5-0.8,3.6-1.4c0.3-0.1,0.6-0.3,0.8-0.5c0.3-0.2,0.5-0.4,0.7-0.7c0.2-0.3,0.2-0.7,0-1c-0.1-0.3-0.3-0.6-0.5-0.8
			c-0.4-0.5-1-0.9-1.6-1.1c-0.6-0.2-1.2-0.5-1.8-0.7c-1.2-0.4-2.5-0.7-3.7-1.1v0.1c1.3-0.4,2.6-0.6,3.9-1.1c0.6-0.2,1.3-0.4,1.9-0.8
			c0.6-0.3,1.1-0.8,1.3-1.5v0c0.1-0.6-0.1-1.2-0.4-1.6c-0.5-0.4-1-0.5-1.6-0.5c-1.1-0.1-2.2-0.2-3.4-0.3s-2.3-0.1-3.4-0.1l-1.7,0
			c-0.3,0-0.6,0-0.8,0c-0.3,0-0.5-0.1-0.7-0.3l0,0.1l6.1-2.5c1-0.4,2-0.8,3-1.3c0.2-0.1,0.5-0.3,0.7-0.4c0.2-0.2,0.4-0.4,0.6-0.6
			c0.2-0.2,0.3-0.5,0.4-0.7c0.1-0.1,0.1-0.3,0.1-0.4c0-0.2,0-0.3-0.1-0.4c-0.3-0.5-0.7-0.9-1.2-1.2c-0.1-0.1-0.3-0.1-0.4-0.1l-0.4,0
			l-0.8,0c-1.1,0-2.2,0-3.3,0c-1.1,0-2.2,0-3.3,0c-1.1-0.1-2.2,0.4-3.2,0.3l0.1,0.2c1.5-1,3-2,4.3-3.1c0.2-0.1,0.3-0.3,0.5-0.4
			c0.2-0.1,0.3-0.3,0.5-0.5c0.2-0.2,0.3-0.4,0.4-0.6c0.1-0.2,0.1-0.5,0.1-0.7c0-0.2-0.1-0.5-0.2-0.7c-0.1-0.2-0.3-0.4-0.6-0.5
			c-0.4-0.2-0.9-0.2-1.4,0l-5.2,1l-2.6,0.5c-0.9,0.3-1.7,0.6-2.5,0.9l0.2,0.2l0.8-1.2c0.3-0.4,0.5-0.8,0.8-1.2
			c0.3-0.4,0.6-0.8,0.7-1.3c0.1-0.2,0.2-0.5,0.2-0.7c0-0.3-0.1-0.5-0.2-0.8l0,0c-0.1-0.3-0.4-0.5-0.7-0.5c-0.3-0.1-0.5-0.1-0.8,0
			c-0.5,0.1-1,0.2-1.5,0.4c-0.9,0.4-1.9,0.8-2.8,1.2c-0.9,0.4-1.8,0.9-2.7,1.5c-0.4,0.3-0.9,0.6-1.2,0.9c-0.4,0.3-0.8,0.7-1.1,1.1
			c-1.4,1.5-2.7,3.1-3.9,4.7c-1.2,1.6-2.4,3.3-3.6,4.9c-2.3,3.3-4.6,6.6-6.8,10c-2.2,3.4-4.4,6.8-6.6,10.2v0c-0.8,1.6-1.4,3.2-1.7,5
			c-0.1,0.9-0.1,1.8,0.1,2.6c0.2,0.9,0.6,1.7,1.2,2.4c1.1,1.4,2.2,2.7,3.2,4.1c0.5,0.7,1,1.4,1.5,2.2c0.3,0.3,0.4,0.8,0.5,1.2
			c0.1,0.4,0,0.9-0.1,1.3c-0.1,0.2-0.2,0.3-0.4,0.4c-0.2,0.1-0.4,0.1-0.6,0.2c-0.4,0.1-0.9,0.1-1.3,0c-0.9,0-1.7-0.3-2.5-0.7
			c-1.5-0.9-2.8-2.2-3.8-3.6c-1.2-1.3-2.6-2.4-4.3-3c-1.7-0.6-3.4-0.9-5.2-0.8h0c-0.8-0.1-1.5,0-2.3,0.2c-0.7,0.2-1.4,0.5-2.1,0.8
			C-2320.8,1503.6-2321.9,1504.8-2322.5,1506.2L-2322.5,1506.2z"/>
		<path class="st1" d="M-2296.5,1511.2c0.7-0.2,1.4-0.5,1.9-1c0.5-0.5,0.9-1.2,1.2-1.9c0.2-0.7,0.4-1.4,0.4-2.2
			c0-0.7-0.2-1.5-0.4-2.2c-0.2-0.7-0.5-1.3-0.8-2c-0.2-0.6-0.4-1.2-0.6-1.9c-0.1-0.6-0.2-1.3-0.3-1.9c0-0.7,0-1.3,0-2
			c0.2-2.7,0.7-5.4,1.4-8.1c0.4-1.3,0.8-2.7,1.1-4c0.4-1.4,0.7-2.7,0.9-4.1l-0.1,0c-0.7,2.7-1.7,5.3-2.5,8c-0.9,2.7-1.4,5.4-1.6,8.2
			c-0.1,1.4,0,2.8,0.3,4.2c0.2,0.7,0.4,1.3,0.7,2c0.3,0.6,0.6,1.3,0.8,1.9c0.2,0.6,0.4,1.3,0.5,2c0,0.7-0.1,1.4-0.2,2.1
			c-0.2,0.7-0.5,1.3-1,1.8C-2295.2,1510.5-2295.8,1510.9-2296.5,1511.2L-2296.5,1511.2z"/>
		<path class="st1" d="M-2290.9,1488.3c0.3-0.5,0.5-1,0.8-1.5l0.8-1.5l0.8-1.5l0.8-1.4c1.1-1.9,2.3-3.8,3.5-5.6
			c1.2-1.8,2.5-3.6,3.7-5.5c0.6-0.9,1.3-1.8,1.9-2.7l1-1.4c0.3-0.4,0.6-0.9,1-1.4l-0.1-0.1c-3,3.3-5.7,6.9-8.2,10.6
			C-2287.3,1480.2-2289.4,1484.1-2290.9,1488.3L-2290.9,1488.3z"/>
		<path class="st1" d="M-2260.2,1485.5c-1.3-0.2-2.7-0.3-4-0.1c-1.3,0.1-2.7,0.4-3.9,0.8c-1.3,0.4-2.5,0.9-3.7,1.6
			c-1.2,0.6-2.3,1.4-3.3,2.3l0,0.1c2.3-1.3,4.7-2.4,7.2-3.2C-2265.4,1486.1-2262.8,1485.7-2260.2,1485.5L-2260.2,1485.5z"/>
		<path class="st1" d="M-2281.4,1517.8c0.8,1,1.7,1.9,2.6,2.6c1,0.8,2,1.5,3.1,2c1.1,0.6,2.3,1,3.5,1.3c1.2,0.3,2.4,0.5,3.7,0.5
			l0-0.1c-2.4-0.5-4.7-1.3-6.8-2.4C-2277.5,1520.6-2279.5,1519.3-2281.4,1517.8L-2281.4,1517.8z"/>
		<path class="st1" d="M-2270.2,1519.1c-0.6-0.4-1.2-0.8-1.8-1.1c-0.6-0.3-1.2-0.6-1.8-0.8c-0.6-0.3-1.2-0.5-1.9-0.7
			c-0.6-0.2-1.3-0.4-2-0.6l0,0.1c1.1,0.8,2.3,1.4,3.6,2C-2272.9,1518.5-2271.6,1518.9-2270.2,1519.1L-2270.2,1519.1z"/>
		<path class="st1" d="M-2271.6,1468.4c-0.9,0.3-1.7,0.7-2.5,1.3c-0.4,0.2-0.8,0.5-1.1,0.8c-0.4,0.3-0.7,0.6-1.1,0.9
			c-0.3,0.3-0.7,0.6-1,1c-0.3,0.3-0.6,0.7-0.9,1.1c-0.6,0.8-1,1.6-1.2,2.6l0.1,0c0.4-0.8,1-1.5,1.6-2.2c0.6-0.7,1.3-1.3,1.9-1.9
			C-2274.4,1470.7-2273,1469.6-2271.6,1468.4L-2271.6,1468.4z"/>
		<path class="st1" d="M-2265.7,1480.8c-1.1,0.1-2.2,0.3-3.3,0.5c-1.1,0.2-2.1,0.5-3.2,0.9c-0.5,0.2-1,0.4-1.5,0.6
			c-0.5,0.2-1,0.5-1.5,0.8c-1,0.6-1.8,1.3-2.5,2.2l0.1,0.1c0.8-0.7,1.8-1.3,2.7-1.7c1-0.5,2-0.9,3-1.2c1-0.4,2.1-0.7,3.1-1
			L-2265.7,1480.8L-2265.7,1480.8z"/>
		<path class="st1" d="M-2278,1510.3c1,0.7,2.1,1.2,3.2,1.6c1.1,0.4,2.3,0.8,3.5,1.1c1.2,0.3,2.4,0.4,3.6,0.5c1.2,0.1,2.4,0,3.6-0.3
			v-0.1c-2.4,0-4.8-0.3-7.1-0.9C-2273.4,1511.8-2275.7,1511.1-2278,1510.3L-2278,1510.3z"/>
		<path class="st1" d="M-2321.7,1504.8c4.7-0.9,8.5-1,12,1.4c1.8,1.2,3.5,4.7,5.2,6.1c8.7,7.2,19.9,11,28.2,18.7
			c0.4,0.4,0.9,1,0.8,1.6c-0.3,0.9-1.6,0.8-2.4,1.5c-0.7,0.6-0.6,1.7-0.3,2.6c0.4,0.8,0.7,1.7,0.7,2.7c-7-1-17.6-3.7-26.5-11.4
			c0,0-7.9-8.2-14.4-9.1c-5-1-6.1-7.6-4.1-12.5C-2322.3,1505.7-2322,1505.2-2321.7,1504.8z"/>
		<path class="st2" d="M-2321.6,1504.9c1.3-0.2,2.6-0.4,4-0.4c1.3-0.1,2.7,0,3.9,0.3c1.3,0.3,2.5,0.8,3.6,1.6c1,0.8,1.9,1.8,2.6,2.9
			c0.8,1.2,1.6,2.2,2.5,3.2c1.1,0.9,2.1,1.7,3.2,2.5c2.2,1.6,4.5,3,6.9,4.3c4.7,2.7,9.5,5,13.9,8.1c1.1,0.8,2.2,1.6,3.2,2.5
			c0.5,0.4,1,0.9,1.5,1.3c0.2,0.2,0.4,0.5,0.5,0.7c0.1,0.3,0.1,0.5-0.1,0.8c-0.2,0.2-0.5,0.4-0.8,0.5c-0.3,0.1-0.7,0.2-1,0.4
			c-0.4,0.1-0.7,0.4-0.9,0.7c-0.2,0.3-0.3,0.7-0.3,1.1c0,0.7,0.2,1.4,0.5,2c0.3,0.6,0.4,1.2,0.4,1.8l0.4-0.3
			c-2.4-0.4-4.8-0.9-7.1-1.6c-2.3-0.7-4.6-1.5-6.8-2.4c-4.4-1.9-8.6-4.5-12.2-7.6l0,0c-2-2-4.2-3.9-6.6-5.5
			c-1.2-0.8-2.4-1.5-3.7-2.2c-1.3-0.7-2.7-1.1-4.1-1.4c-0.3,0-0.7-0.1-1-0.2c-0.3-0.1-0.6-0.2-0.9-0.4c-0.6-0.3-1.1-0.7-1.5-1.2
			c-0.9-1.1-1.4-2.3-1.6-3.6c-0.2-1.4-0.3-2.8,0-4.1c0.1-0.7,0.3-1.4,0.5-2c0.1-0.3,0.2-0.7,0.4-1
			C-2322,1505.4-2321.8,1505.1-2321.6,1504.9z M-2321.7,1504.8c-0.5,0.5-0.9,1.2-1.1,1.9c-0.3,0.7-0.5,1.4-0.6,2.1
			c-0.3,1.4-0.4,2.9-0.2,4.3c0.2,1.5,0.7,2.9,1.6,4c0.5,0.6,1,1.1,1.7,1.5c0.3,0.2,0.7,0.3,1,0.5c0.4,0.1,0.7,0.2,1.1,0.3
			c1.3,0.3,2.6,0.8,3.8,1.4c1.2,0.7,2.4,1.4,3.5,2.2c2.3,1.6,4.4,3.4,6.3,5.4l0,0l0,0c1.9,1.6,3.9,3.1,6,4.3
			c2.1,1.3,4.3,2.4,6.6,3.3c2.3,0.9,4.6,1.7,7,2.3c2.4,0.6,4.8,1,7.2,1.3l0.3,0l0-0.3c0-0.7-0.1-1.4-0.5-2.1
			c-0.3-0.6-0.5-1.2-0.5-1.8c-0.1-0.6,0.3-1.2,0.8-1.4c0.3-0.1,0.6-0.2,0.9-0.4c0.4-0.1,0.7-0.3,0.9-0.6c0.2-0.3,0.3-0.8,0.1-1.2
			c-0.2-0.3-0.4-0.6-0.6-0.9c-0.5-0.5-1-0.9-1.5-1.3c-0.5-0.4-1.1-0.9-1.6-1.3s-1.1-0.8-1.6-1.2c-4.4-3.2-9.1-5.9-13.7-8.6
			c-2.3-1.4-4.6-2.8-6.8-4.3c-0.5-0.4-1.1-0.8-1.6-1.2c-0.5-0.4-1.1-0.8-1.5-1.2c-0.9-0.9-1.7-2-2.5-3.1c-0.4-0.5-0.8-1.1-1.3-1.6
			c-0.5-0.5-1-1-1.6-1.4c-1.2-0.7-2.5-1.2-3.9-1.5c-1.4-0.2-2.7-0.3-4.1-0.1C-2319,1504.2-2320.4,1504.4-2321.7,1504.8
			L-2321.7,1504.8z"/>
		<path class="st1" d="M-2318.8,1504.3c0,0,1.5,8.2,0,11.4c0,0-0.7,3.5-8.4,1.2c0,0-12-5.3-19.4-2.4c0,0,1.6-6.9,10.4-9.7
			C-2336.2,1504.8-2326.3,1501.6-2318.8,1504.3z"/>
		<path class="st2" d="M-2318.8,1504.3c0.1,0.9,0.2,1.9,0.2,2.8c0.1,0.9,0.1,1.9,0.1,2.8c0,0.9,0,1.9-0.1,2.8
			c-0.1,0.9-0.3,1.8-0.6,2.6l0,0l0,0.1c0,0.1-0.1,0.3-0.2,0.4c-0.1,0.1-0.2,0.2-0.3,0.4c-0.2,0.2-0.5,0.4-0.8,0.5
			c-0.7,0.2-1.4,0.4-2.1,0.4c-0.7,0-1.5-0.1-2.2-0.2c-0.7-0.1-1.5-0.3-2.2-0.5l0,0c-1.6-0.6-3.2-1.1-4.8-1.5
			c-1.6-0.4-3.2-0.8-4.9-1.1c-0.4-0.1-0.8-0.1-1.2-0.2c-0.4-0.1-0.8-0.1-1.2-0.2l-1.3-0.1l-1.3,0c-1.7,0-3.4,0.2-5,0.7l0.6,0.5
			c0.4-1.2,1-2.4,1.8-3.4c0.8-1.1,1.7-2,2.7-2.8c2.1-1.6,4.5-2.8,7-3.4c2.6-0.7,5.2-1.1,7.9-1.3c0.7-0.1,1.3-0.1,2-0.1l1,0
			c0.3,0,0.7,0,1,0.1l1,0.1l1,0.2l0.5,0.1l0.5,0.1L-2318.8,1504.3z M-2318.7,1504.3c-2.6-1-5.3-1.5-8.1-1.4c-2.7,0-5.5,0.4-8.1,1
			c-0.7,0.2-1.3,0.3-2,0.6l-1,0.4c-0.3,0.1-0.6,0.3-1,0.4c-0.6,0.3-1.2,0.6-1.8,1c-0.6,0.4-1.1,0.8-1.7,1.2
			c-2.2,1.8-3.8,4.2-4.6,6.9l-0.2,0.8l0.8-0.3c1.5-0.6,3.1-0.9,4.8-1c1.7-0.1,3.3,0,4.9,0.3c1.6,0.3,3.3,0.7,4.8,1.2
			c1.6,0.5,3.1,1.1,4.6,1.8l0,0l0,0c0.7,0.2,1.5,0.5,2.3,0.6c0.8,0.2,1.6,0.3,2.4,0.3c0.8,0,1.7-0.1,2.4-0.4c0.9-0.3,1.6-1,1.8-1.9
			l0,0.1c0.4-0.9,0.6-1.9,0.6-2.9c0-1,0-1.9,0-2.9c-0.1-1-0.2-1.9-0.3-2.9S-2318.5,1505.3-2318.7,1504.3L-2318.7,1504.3z"/>
		<path class="st2" d="M-2318,1511.2c-2.4-0.4-4.9-0.7-7.3-0.8c-2.4-0.2-4.9-0.2-7.4,0c-2.5,0.1-4.9,0.5-7.3,1.1
			c-2.4,0.6-4.6,1.6-6.6,3c2-1.4,4.3-2.3,6.7-2.8c2.4-0.5,4.8-0.8,7.2-0.8c2.4-0.1,4.9,0,7.3,0.3c2.4,0.2,4.8,0.6,7.2,1.1
			L-2318,1511.2z"/>
		<path class="st2" d="M-2342.5,1508.3c0.8,0.1,1.5,0.1,2.3,0.1c0.6-0.1,1.3,0.1,1.8,0.4c0.3,0.3,0.5,0.6,0.7,1
			c0.4,0.5,1.1,0.9,1.7,1c-4,0.5-7.8,1.5-10.7,3.6C-2345.8,1512.1-2344.4,1509.9-2342.5,1508.3z"/>
		<path class="st2" d="M-2316.1,1508.6c0,0.5,0.1,1,0.4,1.4c0.3,0.5,0.8,0.7,1.3,0.7c0.5-0.1,1-0.3,1.3-0.8c0.3-0.4,0.5-0.9,0.5-1.4
			c0-0.5-0.1-1-0.4-1.5c-0.3-0.4-0.8-0.7-1.4-0.7c-0.6,0-1.1,0.3-1.3,0.8C-2316,1507.6-2316.1,1508.1-2316.1,1508.6z
			 M-2316.1,1508.6c0-0.5,0.2-0.9,0.6-1.2c0.3-0.3,0.7-0.4,1.1-0.5c0.4,0,0.8,0.2,1.1,0.5c0.3,0.3,0.5,0.7,0.5,1.2
			c0.1,0.5-0.1,0.9-0.4,1.3c-0.3,0.3-0.7,0.5-1.2,0.5c-0.4,0-0.8-0.2-1.1-0.5C-2315.9,1509.5-2316.1,1509.1-2316.1,1508.6z"/>
		<path class="st2" d="M-2315.6,1507.3c0.1,0,0.1,0,0.2,0c0.6,0,1.1,0.6,1,1.2c0,0.6-0.4,1.2-1,1.2c-0.1,0-0.3,0-0.4-0.1
			c-0.1-0.3-0.2-0.6-0.2-0.9C-2316.1,1508.1-2315.9,1507.7-2315.6,1507.3z"/>
		<ellipse class="st1" cx="-2481.4" cy="1529.4" rx="26.5" ry="26.4"/>
		<path class="st2" d="M-2455.4,1524.6c-0.6-3.4-1.9-6.6-3.9-9.5c-1.9-2.8-4.4-5.3-7.3-7.2c-2.9-1.9-6-3.2-9.4-3.9
			c-3.3-0.7-6.8-0.7-10.1-0.2c-3.4,0.6-6.6,1.8-9.5,3.6c-1.5,0.9-2.8,2-4.1,3.1c-1.2,1.2-2.4,2.5-3.4,3.9c-2,2.8-3.3,6-4,9.4
			c-0.7,3.4-0.7,6.8,0,10.2c0.7,3.3,2,6.5,3.9,9.4c1.9,2.8,4.3,5.3,7.1,7.2c2.8,1.9,6,3.2,9.3,3.9c3.3,0.7,6.7,0.7,10.1,0.1
			c6.7-1.2,12.8-5,16.8-10.6c2-2.8,3.5-5.9,4.3-9.3C-2454.9,1531.5-2454.8,1528-2455.4,1524.6z M-2455.3,1524.6
			c0.6,3.4,0.6,6.9,0,10.4c-0.7,3.4-2,6.7-3.9,9.7c-1.9,3-4.5,5.5-7.4,7.5c-3,2-6.3,3.3-9.8,4c-3.5,0.7-7.1,0.6-10.6-0.2
			c-3.5-0.8-6.8-2.2-9.7-4.2c-2.9-2-5.4-4.6-7.3-7.6c-1.9-3-3.2-6.3-3.7-9.8c-0.6-3.5-0.5-7,0.3-10.4c0.8-3.4,2.2-6.7,4.1-9.5
			c2-2.9,4.5-5.4,7.4-7.4c2.9-2,6.2-3.3,9.7-4c3.5-0.7,7.1-0.6,10.5,0.1c3.5,0.8,6.7,2.2,9.6,4.3c2.8,2.1,5.3,4.7,7.1,7.6
			C-2457.2,1517.9-2455.9,1521.2-2455.3,1524.6L-2455.3,1524.6z"/>
		<ellipse class="st1" cx="-2481.4" cy="1529.4" rx="19" ry="18.9"/>
		<path class="st2" d="M-2462.8,1526c-0.4-2.4-1.4-4.7-2.8-6.8c-1.4-2-3.2-3.7-5.2-5.1c-4.1-2.6-9.1-3.6-13.9-2.8
			c-4.9,0.8-9.2,3.5-12.1,7.5c-1.4,2-2.4,4.3-2.9,6.7c-0.5,2.4-0.5,4.9,0,7.3c0.5,2.4,1.5,4.6,2.8,6.7c1.3,2,3.1,3.7,5.1,5.1
			c4,2.7,9,3.7,13.7,2.9c4.8-0.9,9.1-3.5,12-7.5c1.5-2,2.5-4.2,3.1-6.6C-2462.4,1530.9-2462.3,1528.4-2462.8,1526z M-2462.7,1526
			c0.5,2.5,0.5,5,0,7.4c-0.5,2.5-1.4,4.9-2.8,7c-1.4,2.2-3.2,4-5.3,5.4c-2.1,1.4-4.6,2.4-7.1,2.9c-2.5,0.5-5.1,0.4-7.7-0.1
			c-2.5-0.6-4.9-1.6-7-3.1c-2.1-1.5-3.9-3.3-5.2-5.5c-1.3-2.2-2.2-4.6-2.6-7.1c-0.8-5,0.4-10.2,3.2-14.4c1.4-2.1,3.2-3.9,5.3-5.3
			c2.1-1.4,4.5-2.4,7-3c2.5-0.5,5.1-0.5,7.6,0.1c2.5,0.6,4.8,1.6,6.9,3.1c2,1.5,3.8,3.4,5.1,5.5
			C-2464,1521.1-2463.1,1523.5-2462.7,1526L-2462.7,1526z"/>
		<ellipse class="st1" cx="-2481.4" cy="1529.4" rx="11.6" ry="11.5"/>
		<path class="st2" d="M-2470.1,1527.3c-0.3-1.5-0.9-2.9-1.7-4.1c-0.9-1.2-2-2.2-3.2-3c-2.5-1.5-5.4-2.1-8.3-1.7
			c-2.9,0.4-5.6,2-7.4,4.4c-0.9,1.2-1.5,2.6-1.7,4.1c-0.3,1.5-0.3,3,0.1,4.4c0.7,2.9,2.4,5.4,4.8,7c2.4,1.6,5.3,2.2,8.2,1.7
			c2.9-0.5,5.4-2.1,7.2-4.4c0.9-1.2,1.6-2.5,2-3.9C-2469.9,1530.3-2469.8,1528.8-2470.1,1527.3z M-2469.9,1527.3
			c0.6,3.1,0,6.2-1.6,8.9c-0.8,1.4-1.9,2.5-3.2,3.4c-1.3,0.9-2.8,1.5-4.4,1.8c-1.6,0.3-3.2,0.3-4.8-0.1c-1.6-0.4-3-1-4.3-1.9
			c-2.6-1.8-4.3-4.7-4.8-7.8c-0.4-3.1,0.3-6.2,2-8.8c0.9-1.3,1.9-2.4,3.2-3.3c1.3-0.9,2.7-1.5,4.3-1.9c1.6-0.3,3.2-0.3,4.7,0
			c1.5,0.3,3,1,4.2,2C-2472.1,1521.5-2470.5,1524.2-2469.9,1527.3L-2469.9,1527.3z"/>
		<path class="st1" d="M-2454.3,1498.1l4.3-1.2l-3.7,5.5l-4.6,0.9l-0.2-4.7l4.5-4.9L-2454.3,1498.1z"/>
		<path class="st2" d="M-2454.2,1498.1c0.7-0.3,1.5-0.5,2.2-0.8c0.7-0.2,1.3-0.5,2-0.7l0.8-0.3l-0.5,0.7l-1.8,2.8
			c-0.3,0.5-0.6,0.9-0.9,1.4l-0.9,1.4l-0.1,0.2l-0.2,0l-4.6,0.9l-0.7,0.1l0-0.7l-0.1-4.7l0-0.2l0.1-0.1l1.1-1.2
			c0.4-0.4,0.8-0.8,1.2-1.2l2.3-2.4l0.6-0.6l-0.1,0.9c-0.1,0.7-0.2,1.4-0.2,2.1S-2454.2,1497.3-2454.2,1498.1z M-2454.3,1498.1
			l0.2-4.5l0.1,0l-4.4,4.9l0,0l0.2,4.7l-0.1-0.1l4.6-0.9l0,0l3.7-5.4l0,0.1L-2454.3,1498.1z"/>
		<path class="st2" d="M-2481.4,1529.4c1.9-2.8,3.9-5.5,6.1-8.1c1-1.3,2.1-2.6,3.2-3.9l3.3-3.8c1.1-1.2,2.2-2.5,3.4-3.8
			c1.2-1.2,2.3-2.5,3.5-3.7c2.3-2.4,4.8-4.8,7.3-7l0.1,0.1l-13.3,15.2L-2481.4,1529.4L-2481.4,1529.4z"/>
		<path class="st1" d="M-2438.7,1494.2l4.3-1.2l-3.7,5.5l-4.6,0.9l-0.2-4.7l4.5-4.9L-2438.7,1494.2z"/>
		<path class="st2" d="M-2438.6,1494.2c0.7-0.3,1.5-0.5,2.2-0.8c0.7-0.2,1.3-0.5,2-0.7l0.8-0.3l-0.5,0.7l-1.8,2.8
			c-0.3,0.5-0.6,0.9-0.9,1.4l-0.9,1.4l-0.1,0.2l-0.2,0l-4.6,0.9l-0.7,0.1l0-0.7l-0.1-4.7l0-0.2l0.1-0.1l1.1-1.2
			c0.4-0.4,0.8-0.8,1.2-1.2l2.3-2.4l0.6-0.6l-0.1,0.9c-0.1,0.7-0.2,1.4-0.2,2.1S-2438.6,1493.4-2438.6,1494.2z M-2438.7,1494.3
			l0.2-4.5l0.1,0l-4.4,4.9l0,0l0.2,4.7l-0.1-0.1l4.6-0.9l0,0l3.7-5.4l0,0.1L-2438.7,1494.3z"/>
		<path class="st2" d="M-2465.8,1525.5c1.9-2.8,3.9-5.5,6.1-8.1c1-1.3,2.1-2.6,3.2-3.9l3.3-3.8c1.1-1.2,2.2-2.5,3.4-3.8
			c1.2-1.2,2.3-2.5,3.5-3.7c2.3-2.4,4.8-4.8,7.3-7l0.1,0.1l-13.3,15.2L-2465.8,1525.5L-2465.8,1525.5z"/>
		<path class="st1" d="M-2394.9,1577.1l-22.5,4.6l-17.2-15.2c-8.4,9.5-7.5,24,2,32.3l0,0c7,6.2,17.2,7.5,25.6,3.3
			c2.6-1.3,4.9-3.1,6.8-5.2C-2395.4,1591.5-2393.4,1584.2-2394.9,1577.1z"/>
		<path class="st2" d="M-2394.9,1577.2l-5.7,1.3c-1.9,0.4-3.7,0.9-5.6,1.3c-1.9,0.4-3.7,0.9-5.5,1.3c-1.8,0.4-3.7,0.8-5.5,1.2
			l-0.2,0.1l-0.2-0.2c-2.9-2.5-5.8-5-8.6-7.6l-8.4-7.8l0.4,0c-2.6,2.9-4.4,6.4-5.2,10.1c-0.2,0.9-0.3,1.9-0.4,2.9
			c0,0.5-0.1,1-0.1,1.4l0,1.4c0,0.5,0.1,1,0.1,1.4c0.1,0.5,0.1,1,0.2,1.4c0.2,0.9,0.4,1.9,0.7,2.8c0.6,1.8,1.4,3.6,2.4,5.2l0.8,1.2
			l0.4,0.6l0.5,0.5l0.9,1.1c0.3,0.3,0.7,0.7,1,1c2.8,2.6,6.1,4.5,9.8,5.5c3.7,0.9,7.5,0.9,11.2,0c1.8-0.5,3.6-1.2,5.3-2
			c1.7-0.9,3.2-2,4.6-3.3c2.8-2.6,4.9-5.9,6.2-9.5c0.6-1.8,1-3.7,1.1-5.6c0-0.5,0.1-1,0.1-1.4c0-0.5,0-1,0-1.4c0-0.5-0.1-1-0.1-1.4
			L-2394.9,1577.2z M-2394.9,1577.1c0.1,0.5,0.2,1,0.3,1.5c0.1,0.5,0.2,1,0.2,1.5c0,0.5,0.1,1,0.1,1.5c0,0.5,0,1,0,1.5
			c-0.1,2-0.4,3.9-0.9,5.8c-1.1,3.8-3.2,7.3-6.1,10c-1.4,1.4-3,2.6-4.8,3.6c-1.8,1-3.6,1.7-5.5,2.2c-3.9,1-8,0.9-11.8-0.1
			c-1.9-0.5-3.8-1.3-5.5-2.3c-0.4-0.3-0.9-0.5-1.3-0.8l-1.2-0.9c-0.8-0.6-1.5-1.3-2.2-2c-0.3-0.4-0.7-0.7-1-1.1l-0.9-1.2l-0.5-0.6
			l-0.4-0.6l-0.8-1.2c-1-1.7-1.8-3.5-2.3-5.4c-0.3-0.9-0.5-1.9-0.6-2.9c-0.1-0.5-0.1-1-0.2-1.5c-0.1-0.5-0.1-1-0.1-1.5l0-1.5
			c0-0.5,0.1-1,0.1-1.5c0.1-1,0.2-1.9,0.4-2.9c0.1-0.5,0.3-0.9,0.4-1.4c0.1-0.5,0.3-0.9,0.4-1.4l0.5-1.4l0.1-0.3l0.2-0.3l0.3-0.7
			c0.9-1.8,2-3.4,3.2-4.9l0.2-0.2l0.2,0.2l8.7,7.4c2.9,2.5,5.7,5,8.6,7.6l-0.4-0.1c1.9-0.4,3.8-0.7,5.7-1.1c1.9-0.4,3.8-0.7,5.7-1.1
			c1.9-0.4,3.8-0.7,5.6-1L-2394.9,1577.1z"/>
		<path class="st2" d="M-2392,1578.2c-1.1-5.6-4.1-10.7-8.4-14.5l-17.6,19.8L-2392,1578.2z"/>
		<path class="st1" d="M-2400.4,1563.7c-11-9.7-27.7-8.7-37.4,2.3l0,0l19.8,17.6L-2400.4,1563.7z"/>
		<path class="st2" d="M-2400.5,1563.7c-2.7-2.1-5.8-3.7-9-4.8c-3.3-1-6.7-1.5-10.1-1.3c-3.4,0.2-6.8,1-9.9,2.4
			c-3.1,1.4-5.9,3.5-8.2,6.1l0-0.3c1.7,1.4,3.4,2.9,5.1,4.3c1.7,1.4,3.4,2.8,5.1,4.3c1.7,1.4,3.3,2.9,5,4.3c1.7,1.4,3.3,2.9,5,4.4
			l-0.9,0.1c1.4-1.6,2.9-3.2,4.4-4.8c1.5-1.6,3-3.2,4.4-4.8s3-3.2,4.5-4.8L-2400.5,1563.7z M-2400.4,1563.7c-1.4,1.6-2.7,3.3-4.1,5
			s-2.8,3.4-4.3,5.1c-1.4,1.7-2.9,3.4-4.3,5.1s-2.9,3.4-4.4,5.1l-0.4,0.5l-0.5-0.4c-1.7-1.5-3.3-3-4.9-4.4c-1.6-1.5-3.3-3-4.9-4.5
			c-1.6-1.5-3.3-3-4.9-4.5c-1.6-1.5-3.2-3-4.9-4.5l-0.1-0.1l0.1-0.1c2.4-2.6,5.2-4.7,8.3-6.4c3.1-1.7,6.6-2.6,10.1-2.9
			c3.5-0.2,7.1,0.3,10.4,1.5C-2405.9,1559.3-2402.9,1561.2-2400.4,1563.7L-2400.4,1563.7z"/>
		<path class="st2" d="M-2606.9,1637.9c1,0,1.9-0.1,2.9-0.1c1,0,1.9,0,2.9,0c1,0,1.9,0.1,2.9,0.1c1,0,1.9,0.1,2.9,0.1l-0.5,0.1
			c0.7-0.5,1.5-1,2.3-1.5l2.3-1.5l2.3-1.5c0.8-0.5,1.5-1,2.3-1.5l-0.1,0.1c0.7-0.7,1.4-1.4,2.2-2.1s1.5-1.4,2.2-2l1.1-1l1.1-1
			c0.8-0.7,1.5-1.3,2.3-1.9l0.1,0.1l-8.5,8.5l0,0l0,0l-4.6,3l-4.6,3l0,0h0L-2606.9,1637.9L-2606.9,1637.9z"/>
		<circle class="st2" cx="-2606.9" cy="1637.6" r="1.6"/>
		<circle class="st2" cx="-2595.5" cy="1638.5" r="1.6"/>
		<circle class="st2" cx="-2586.4" cy="1632.5" r="1.6"/>
		<circle class="st2" cx="-2577.9" cy="1624" r="1.6"/>
		
			<rect x="-2622.8" y="1665" transform="matrix(0.7556 -0.6551 0.6551 0.7556 -1736.109 -1308.772)" class="st1" width="2" height="13.7"/>
		<path class="st2" d="M-2618,1677.8c-0.8-0.6-1.6-1.4-2.4-2.2c-0.8-0.8-1.6-1.6-2.4-2.5c-0.8-0.9-1.5-1.9-2.2-2.9
			c-0.7-1-1.4-1.9-2.2-2.7l-0.1-0.2l0.2-0.2c0.5-0.5,1-1,1.5-1.4l0.2-0.2l0.3,0.3c0.8,0.8,1.7,1.6,2.4,2.4s1.6,1.7,2.3,2.5
			c0.4,0.4,0.8,0.9,1.1,1.3c0.4,0.4,0.7,0.9,1.1,1.3c0.7,0.9,1.4,1.8,2,2.8l0.2,0.3l-0.3,0.2
			C-2616.8,1677.1-2617.5,1677.5-2618,1677.8z M-2618,1677.7c0.5-0.6,0.9-1.1,1.3-1.5l0,0.5c-0.8-0.8-1.7-1.6-2.5-2.4
			c-0.4-0.4-0.8-0.8-1.2-1.3c-0.4-0.4-0.8-0.9-1.1-1.3c-0.7-0.9-1.4-1.8-2.2-2.7c-0.7-0.9-1.4-1.8-2.1-2.8l0.5,0
			c-0.5,0.4-1.1,0.8-1.6,1.2l0-0.3c0.7,0.9,1.5,1.7,2.3,2.5c0.8,0.7,1.6,1.5,2.3,2.3c0.7,0.8,1.4,1.7,2.1,2.7
			C-2619.4,1675.6-2618.7,1676.6-2618,1677.7L-2618,1677.7z"/>
		
			<rect x="-2617.3" y="1672.6" transform="matrix(0.7556 -0.6551 0.6551 0.7556 -1739.4244 -1302.6862)" class="st1" width="4.1" height="13.5"/>
		<path class="st2" d="M-2612.4,1685.9c-1.6-1.5-3.2-3-4.7-4.6c-0.8-0.9-1.5-1.8-2.2-2.7c-0.7-0.9-1.4-1.9-2.1-2.8l-0.1-0.2l0.2-0.1
			c0.5-0.4,1-0.9,1.5-1.4s1-1,1.5-1.4l0.2-0.2l0.3,0.3c0.8,0.8,1.6,1.6,2.4,2.4l2.3,2.5c1.5,1.7,2.9,3.4,4.3,5.2l0.3,0.4l-0.4,0.3
			c-0.6,0.4-1.2,0.9-1.8,1.3L-2612.4,1685.9z M-2612.3,1685.8l0.7-0.8l0.7-0.8c0.4-0.5,0.9-1,1.3-1.4l-0.1,0.7
			c-1.6-1.6-3.1-3.2-4.6-5l-2.1-2.6c-0.7-0.9-1.4-1.8-2-2.7l0.5,0c-0.5,0.4-1.1,0.8-1.6,1.2c-0.5,0.4-1.1,0.9-1.6,1.3l0-0.3
			c0.7,0.8,1.6,1.6,2.3,2.3c0.8,0.7,1.5,1.5,2.2,2.4C-2615.1,1681.9-2613.8,1683.7-2612.3,1685.8L-2612.3,1685.8z"/>
		<ellipse class="st1" cx="-2632.9" cy="1659" rx="12.5" ry="12.5"/>
		<path class="st2" d="M-2624.7,1668.5c1.2-1.1,2.2-2.4,2.9-3.9c0.6-1.5,1-3.1,1-4.7c0-3.2-1-6.3-3-8.7c-2-2.5-5-4.1-8.2-4.4
			c-1.6-0.1-3.2,0.1-4.8,0.6c-1.5,0.5-2.9,1.4-4.1,2.5c-2.3,2.2-3.7,5.2-3.9,8.3c-0.2,3.1,0.9,6.2,2.9,8.6c2.1,2.4,4.9,3.9,8.1,4.3
			c1.6,0.2,3.2,0.1,4.8-0.3C-2627.4,1670.3-2626,1669.5-2624.7,1668.5z M-2624.6,1668.6c-2.5,2.2-5.8,3.5-9.2,3.4
			c-1.7,0-3.4-0.4-5-1.2c-1.6-0.7-3-1.8-4.1-3.1c-1.1-1.3-2-2.8-2.5-4.5c-0.5-1.7-0.7-3.4-0.6-5.1c0.3-3.5,2-6.6,4.7-8.8
			c2.6-2.1,6-3.2,9.4-3c1.7,0.1,3.3,0.5,4.9,1.2c1.6,0.7,3,1.7,4.1,3c2.3,2.6,3.5,6,3,9.5
			C-2620.4,1663.3-2622.1,1666.4-2624.6,1668.6L-2624.6,1668.6z"/>
		<ellipse class="st1" cx="-2632.9" cy="1659" rx="10" ry="9.9"/>
		<path class="st2" d="M-2626.4,1666.5c1-0.8,1.8-1.9,2.3-3.1c0.5-1.2,0.8-2.4,0.8-3.7c0-2.5-0.9-4.9-2.4-6.8
			c-1.6-2-3.9-3.3-6.4-3.6c-1.3-0.1-2.6,0.1-3.8,0.5c-1.2,0.4-2.3,1.1-3.2,2c-1.8,1.7-2.9,4.1-3,6.6c-0.1,2.5,0.7,4.9,2.3,6.7
			c1.6,1.9,3.9,3.1,6.3,3.4c1.3,0.2,2.5,0.1,3.8-0.2C-2628.5,1668-2627.4,1667.3-2626.4,1666.5z M-2626.3,1666.6
			c-2,1.8-4.6,2.8-7.3,2.8c-1.4,0-2.8-0.3-4-0.9c-1.3-0.6-2.4-1.4-3.3-2.5c-0.9-1.1-1.6-2.3-2-3.6c-0.4-1.3-0.6-2.7-0.4-4.1
			c0.2-2.8,1.6-5.3,3.8-7c2.1-1.7,4.8-2.5,7.5-2.3c1.3,0.1,2.7,0.4,3.9,0.9c1.3,0.6,2.4,1.4,3.3,2.3c1.9,2.1,2.8,4.8,2.4,7.6
			C-2622.9,1662.4-2624.3,1664.9-2626.3,1666.6L-2626.3,1666.6z"/>
		<path class="st1" d="M-2622.1,1587.5l1.2,2l-0.7,0.4c-0.3,0.2-0.4,0.6-0.2,0.9v0l0,0c0.2,0.3,0.6,0.4,0.9,0.2l0.7-0.4l0.4,0.7
			l-0.7,0.4c-0.3,0.2-0.4,0.6-0.2,0.9c0.2,0.3,0.6,0.4,0.9,0.2l0,0l0.7-0.4l2.9,1l0,0l0.6,1.1c0.5,0.8,1.5,1.1,2.4,0.6l3.3-1.9
			c0.8-0.5,1.1-1.5,0.6-2.4c0,0,0,0,0,0l0,0l-0.6-1.1l0.5-3l0.7-0.4c0.3-0.2,0.4-0.6,0.2-0.9c0,0,0,0,0,0l0,0
			c-0.2-0.3-0.6-0.4-0.9-0.2l0,0l-0.7,0.4l-0.4-0.7l0.7-0.4c0.3-0.2,0.4-0.6,0.2-0.9l0,0l0,0c-0.2-0.3-0.6-0.4-0.9-0.2l-0.7,0.4
			l-1.2-2"/>
		<path class="st2" d="M-2622.1,1587.5l1.3,2l0,0.1l-0.1,0c-0.2,0.2-0.5,0.4-0.8,0.5c-0.2,0.2-0.2,0.4-0.1,0.7
			c0.1,0.2,0.4,0.3,0.6,0.2c0.2-0.1,0.5-0.3,0.8-0.5l0.2-0.1l0.1,0.2l0.4,0.7l0.1,0.2l-0.2,0.2l-0.4,0.3l-0.2,0.1
			c-0.1,0-0.1,0.1-0.2,0.1c-0.1,0.1-0.2,0.3-0.1,0.4c0.1,0.1,0.3,0.2,0.4,0.1l0.7-0.5l0.1-0.1l0.2,0.1c1,0.3,1.9,0.7,2.9,1l0.1,0
			l0.1,0.1l0.4,0.6c0.1,0.2,0.3,0.4,0.4,0.6c0.2,0.3,0.6,0.5,0.9,0.5c0.2,0,0.4,0,0.5-0.1c0.1,0,0.2-0.1,0.3-0.1l0.3-0.2l1.2-0.8
			l1.3-0.7l0.3-0.2c0.1,0,0.2-0.1,0.2-0.2c0.1-0.1,0.2-0.3,0.3-0.4c0.2-0.3,0.2-0.7,0-1c-0.1-0.1-0.2-0.4-0.3-0.6l-0.4-0.6l-0.1-0.1
			l0-0.1c0.2-1,0.3-2,0.5-3l0-0.2l0.1-0.1l0.8-0.4c0.1-0.1,0.2-0.3,0.1-0.4c-0.1-0.1-0.3-0.2-0.4-0.2c-0.1,0-0.1,0.1-0.2,0.1
			l-0.2,0.1l-0.4,0.2l-0.2,0.1l-0.1-0.2l-0.4-0.7l-0.1-0.2l0.2-0.1c0.3-0.1,0.6-0.3,0.8-0.4c0.2-0.1,0.2-0.4,0.1-0.6
			c-0.1-0.2-0.4-0.3-0.6-0.2c-0.3,0.1-0.5,0.3-0.8,0.4l-0.1,0l0-0.1l-1.2-2l0,0l1.2,2l0,0c0.3-0.2,0.5-0.3,0.8-0.5
			c0.3-0.1,0.7,0,0.9,0.3c0.2,0.3,0.1,0.7-0.2,0.9c-0.3,0.2-0.5,0.3-0.8,0.5l0,0l0.4,0.7l0,0c0.3-0.2,0.5-0.3,0.8-0.5
			c0.3-0.1,0.7,0,0.9,0.3c0.2,0.3,0.1,0.7-0.2,0.9c-0.3,0.2-0.5,0.3-0.8,0.5l0,0l-0.4,3l0,0c0.2,0.4,0.5,0.8,0.7,1.3
			c0.2,0.5,0.2,1,0,1.5c-0.1,0.2-0.3,0.4-0.4,0.6c-0.2,0.1-0.4,0.3-0.6,0.4l-1.3,0.7l-1.3,0.7c-0.2,0.1-0.4,0.3-0.6,0.4
			c-0.2,0.1-0.5,0.1-0.7,0.1c-0.5,0-1-0.3-1.3-0.7c-0.3-0.4-0.5-0.8-0.8-1.3l0,0l-2.9-1h0c-0.3,0.2-0.5,0.3-0.8,0.5
			c-0.3,0.1-0.7,0-0.9-0.3c-0.2-0.3-0.1-0.7,0.2-0.9c0.3-0.2,0.5-0.3,0.8-0.5l0,0l-0.4-0.7l0,0c-0.3,0.2-0.5,0.3-0.8,0.5
			c-0.3,0.1-0.7,0-0.9-0.3c-0.2-0.3-0.1-0.7,0.2-0.9c0.3-0.2,0.5-0.3,0.8-0.5l0,0L-2622.1,1587.5L-2622.1,1587.5z"/>
		<path class="st1" d="M-2636.5,1553.4c-7.1,4.5-9.4,13.9-5,21.2c2.5,4.2,6.9,7,11.8,7.4c1.9,0.2,3.6,1.2,4.6,2.9l2.6,4.4l11.7-7
			l-2.6-4.4c-1-1.6-1.1-3.6-0.4-5.4c1.9-4.5,1.5-9.7-1-14c-4.4-7.4-13.9-9.8-21.3-5.4c0,0,0,0,0,0
			C-2636.3,1553.2-2636.4,1553.3-2636.5,1553.4z"/>
		<path class="st2" d="M-2636.5,1553.4c-1.7,1.1-3.2,2.5-4.4,4.2c-1.1,1.7-1.9,3.6-2.3,5.6c-0.7,4,0.1,8.1,2.3,11.5
			c2.2,3.4,5.6,5.8,9.6,6.7c0.5,0.1,1,0.2,1.5,0.3c0.5,0.1,1,0.2,1.5,0.4c1,0.4,1.9,1,2.6,1.8c0.3,0.4,0.6,0.8,0.9,1.3l0.8,1.3
			l1.6,2.6l-0.3-0.1c1.9-1.2,3.9-2.4,5.8-3.6l5.8-3.6l-0.1,0.6l-1.6-2.7l-0.8-1.3c-0.3-0.5-0.6-1-0.8-1.5c-0.4-1.1-0.5-2.2-0.3-3.3
			c0.1-0.5,0.3-1.1,0.5-1.6c0.2-0.5,0.3-0.9,0.5-1.4c0.5-1.9,0.7-4,0.5-6c-0.3-2-0.9-3.9-1.9-5.7c-2-3.6-5.4-6.2-9.3-7.3
			c-2-0.6-4.1-0.7-6.1-0.4C-2632.8,1551.6-2634.7,1552.3-2636.5,1553.4z M-2636.6,1553.3c3.6-2.3,8-3.1,12.1-2.2
			c2.1,0.5,4.1,1.3,5.8,2.6c1.7,1.3,3.2,2.9,4.3,4.8c1.1,1.9,1.8,3.9,2.1,6.1c0.2,2.2,0.1,4.3-0.6,6.4c-0.2,0.5-0.3,1-0.5,1.5
			c-0.2,0.4-0.3,0.9-0.4,1.4c-0.2,0.9-0.1,1.9,0.2,2.8c0.2,0.5,0.4,0.9,0.7,1.3l0.8,1.4l1.6,2.7l0.2,0.4l-0.4,0.2l-5.9,3.4
			c-2,1.1-3.9,2.2-5.9,3.4l-0.2,0.1l-0.1-0.2l-1.6-2.7l-0.8-1.3c-0.2-0.4-0.5-0.9-0.8-1.2c-0.7-0.8-1.5-1.3-2.4-1.7
			c-0.5-0.2-1-0.3-1.5-0.3c-0.5,0-1-0.1-1.6-0.2c-4.2-0.7-7.9-3.2-10.3-6.7c-1.2-1.8-1.9-3.8-2.3-5.9c-0.3-2.1-0.2-4.2,0.3-6.3
			C-2642.7,1559.1-2640.1,1555.5-2636.6,1553.3L-2636.6,1553.3z"/>
		<path class="st2" d="M-2615.4,1585c-1-1.9-2-3.8-2.8-5.8c-0.9-2-1.6-4-2.2-6c-0.3-1-0.5-2.1-0.7-3.2c-0.1-0.5-0.1-1.1-0.1-1.6
			c0-0.3,0-0.6,0.1-0.8c0-0.1,0-0.3,0.1-0.4l0-0.2l0-0.1c0,0,0,0,0,0c0,0,0,0.1,0,0.1c0,0.1,0.1,0.2,0.2,0.2c0.1,0,0.1,0,0.2,0
			c0,0,0,0,0,0l0,0c-0.8,0.8-1.8,1.4-2.9,1.6c-0.6,0.1-1.2,0-1.7-0.3c-0.1,0-0.1-0.1-0.2-0.1l-0.2-0.2c-0.1-0.1-0.2-0.2-0.3-0.3
			l-0.2-0.4c-0.1-0.1-0.2-0.3-0.2-0.4c-0.2-0.6,0.1-1.3,0.7-1.7l0.2-0.1c0.1,0,0.1-0.1,0.2-0.1c0.2-0.1,0.3-0.1,0.5-0.1
			c0.3,0,0.6,0.1,0.9,0.3c0.1,0.1,0.2,0.2,0.3,0.4c0.1,0.1,0.2,0.2,0.2,0.4c0.1,0.3,0.2,0.5,0.3,0.8c0.1,0.6,0.1,1.1-0.1,1.7
			c-0.8,2.1-3.1,3.4-5.3,3c-0.5-0.1-1-0.4-1.4-0.8c-0.2-0.2-0.4-0.4-0.5-0.6c-0.2-0.2-0.3-0.5-0.3-0.8c0-0.3,0.1-0.6,0.2-0.8
			c0.2-0.2,0.4-0.4,0.6-0.5c0.5-0.3,1.2-0.2,1.6,0.3c0.1,0.1,0.2,0.2,0.2,0.4l0.2,0.4c0.1,0.3,0.2,0.5,0.2,0.8
			c0,0.6-0.2,1.1-0.6,1.6c-0.4,0.4-0.8,0.8-1.3,1c-0.5,0.3-1,0.5-1.5,0.7l0-0.4c0.8,0.2,1.6,0.5,2.2,1c0.7,0.4,1.3,0.9,1.9,1.4
			c1.2,1.1,2.3,2.2,3.4,3.4c1.1,1.2,2.1,2.5,3,3.7c1,1.3,1.9,2.6,2.7,3.9l0,0c-0.9-1.3-1.9-2.5-2.9-3.8c-1-1.2-2-2.4-3.1-3.6
			c-1.1-1.2-2.2-2.3-3.4-3.3c-1.1-1.1-2.5-1.9-4-2.4l-0.6-0.2l0.6-0.2c1-0.3,1.9-0.8,2.7-1.5c0.4-0.4,0.5-0.9,0.6-1.4
			c0-0.3-0.1-0.5-0.1-0.7l-0.2-0.3c-0.1-0.1-0.1-0.2-0.2-0.3c-0.3-0.4-0.9-0.5-1.3-0.3c-0.2,0.1-0.4,0.3-0.6,0.5
			c-0.1,0.2-0.2,0.5-0.2,0.7c0,0.3,0.1,0.5,0.3,0.7c0.1,0.2,0.3,0.4,0.5,0.6c0.4,0.3,0.9,0.6,1.4,0.7c2.1,0.3,4.2-0.9,4.9-2.9
			c0.1-0.5,0.2-1,0-1.5c-0.1-0.2-0.1-0.5-0.3-0.7c-0.1-0.1-0.1-0.2-0.2-0.3c-0.1-0.1-0.1-0.2-0.2-0.2c-0.2-0.1-0.4-0.2-0.6-0.2
			c-0.1,0-0.2,0-0.3,0.1c-0.1,0-0.2,0.1-0.3,0.2c-0.4,0.2-0.6,0.7-0.4,1.1c0,0.1,0.1,0.2,0.2,0.3l0.2,0.3c0.1,0.1,0.2,0.2,0.2,0.3
			l0.1,0.1c0,0,0.1,0.1,0.1,0.1c0.4,0.2,0.9,0.3,1.3,0.2c1-0.3,1.9-0.8,2.6-1.5l0,0c0,0,0,0,0,0c0.1,0,0.1-0.1,0.2-0.1
			c0.1,0,0.2,0.1,0.3,0.2c0,0,0,0.1,0,0.1c0,0,0,0,0,0l0,0.1l0,0.2c0,0.1-0.1,0.2-0.1,0.4c0,0.3-0.1,0.5-0.1,0.8c0,0.5,0,1,0.1,1.6
			c0.1,1,0.3,2.1,0.6,3.1c0.6,2.1,1.2,4.1,2,6C-2617.1,1581.1-2616.3,1583-2615.4,1585L-2615.4,1585z"/>
		<path class="st1" d="M-2617.5,1561.7c-3.5-5.8-11-7.7-16.8-4.2l0,0l0,0"/>
		<path class="st2" d="M-2617.6,1561.7c-1-1.2-2.2-2.2-3.5-3.1l-1-0.6c-0.3-0.2-0.7-0.3-1-0.5l-1.1-0.4l-1.1-0.3
			c-1.5-0.4-3-0.5-4.5-0.4c-1.6,0.1-3.1,0.5-4.6,1.1l0-0.1c1.4-0.8,2.9-1.4,4.5-1.6c1.6-0.2,3.2-0.2,4.8,0.2c1.6,0.4,3,1.1,4.3,2.1
			C-2619.4,1559.1-2618.3,1560.3-2617.6,1561.7L-2617.6,1561.7z"/>
		<path class="st2" d="M-2648.2,1453.7c2.5,8.5,6.4,16.4,11.7,23.5c2.6,3.5,5.5,6.8,8.6,9.8c1.6,1.5,3.2,2.9,4.9,4.3
			c1.7,1.4,3.5,2.6,5.3,3.9c1.8,1.3,3.7,2.5,5.5,3.9c1.9,1.4,3.6,2.8,5.3,4.4c1.7,1.6,3.3,3.3,4.8,5.2c1.4,1.8,2.7,3.8,3.9,5.8
			c2.2,4,4.1,8.2,5.6,12.5c1.5,4.2,2.9,8.5,4.3,12.6c1.3,4.1,2.9,8.2,4.7,12.1c0.9,1.9,1.9,3.8,3,5.6c0.3,0.5,0.6,0.9,0.9,1.3
			c0.3,0.4,0.6,0.9,0.9,1.3c0.6,0.8,1.2,1.7,1.9,2.5c2.7,3.4,5.7,6.4,9,9.2c3.4,2.8,6.8,5.4,10.5,7.9c3.6,2.5,7.4,4.8,11.1,7.3
			s7.5,4.8,11.1,7.4c3.7,2.6,7.2,5.4,10.5,8.4c1.6,1.5,3.3,3.1,4.8,4.8c1.5,1.7,2.9,3.4,4.2,5.2l-0.2,0.2c-2.8-3.4-6-6.6-9.4-9.4
			c-3.4-2.8-7-5.5-10.7-7.9c-7.4-4.9-15.2-9.2-22.6-14.1c-3.7-2.4-7.4-5-10.8-7.8c-3.5-2.8-6.6-6-9.5-9.4c-2.8-3.5-5.2-7.2-7.1-11.3
			c-1.9-4-3.5-8.2-4.9-12.4c-1.4-4.2-2.7-8.4-4.3-12.6c-1.4-4.2-3.2-8.2-5.3-12.1c-2.1-3.9-4.8-7.4-8-10.5c-3.3-3-6.8-5.7-10.4-8.2
			c-1.8-1.3-3.6-2.6-5.3-4.1c-1.7-1.4-3.4-2.9-4.9-4.5c-3.1-3.2-6-6.6-8.5-10.3c-5-7.4-8.7-15.6-10.7-24.3L-2648.2,1453.7z"/>
		<path class="st1" d="M-2453.8,1632.5l1.3,1.1l-8.9,24.7l-38-4.6l10.3-24.9L-2453.8,1632.5z"/>
		<path class="st2" d="M-2453.8,1632.4l1.4,1.1l0,0l0,0.1c-1.4,4.2-2.8,8.3-4.2,12.4c-0.7,2.1-1.4,4.1-2.1,6.2l-2.2,6.2l-0.1,0.4
			l-0.4,0l-9.5-1l-9.5-1.1l-9.5-1.1c-3.2-0.4-6.3-0.7-9.5-1.1l-1-0.1l0.4-0.9l5.2-12.4l2.6-6.2c0.9-2.1,1.7-4.1,2.6-6.2l0.2-0.4
			l0.5,0.1l17.6,2.1l8.8,1.1C-2459.6,1631.7-2456.7,1632-2453.8,1632.4z M-2453.8,1632.5l-35.2-3.6l0.1,0l-10.3,24.9l-0.1-0.1
			l38,4.6l-0.1,0l8.9-24.7l0,0L-2453.8,1632.5z"/>
		<path class="st1" d="M-2492.1,1628.5l38.3,4c0,0-2.5,17.6-16.1,21.2l-38-3.9C-2507.8,1649.8-2495.7,1646.4-2492.1,1628.5z"/>
		<path class="st2" d="M-2492.1,1628.5l9.5,0.8c3.2,0.3,6.4,0.5,9.6,0.8l9.7,0.9l9.7,0.9l0.7,0.1l-0.1,0.7c-0.4,2.4-1,4.7-1.9,6.9
			c-0.8,2.2-1.9,4.4-3.2,6.4c-1.3,2-3,3.8-4.9,5.3c-1.9,1.5-4.1,2.6-6.5,3.2l-0.1,0l-0.1,0l-19-2l-9.5-1l-9.5-1.1l-2.5-0.3l2.4-0.7
			c1.1-0.4,2.1-0.8,3-1.4c0.5-0.3,1-0.6,1.4-0.9l0.7-0.5l0.7-0.5c1.7-1.5,3.3-3.1,4.6-5l0.9-1.4l0.2-0.4c0.1-0.1,0.1-0.2,0.2-0.4
			l0.4-0.8l0.4-0.8l0.2-0.4l0.2-0.4l0.7-1.6c0.2-0.5,0.4-1.1,0.6-1.6l0.6-1.6C-2492.7,1630.7-2492.4,1629.6-2492.1,1628.5z
			 M-2492.1,1628.5c-0.3,1.1-0.5,2.2-0.8,3.3l-0.5,1.6c-0.2,0.6-0.4,1.1-0.6,1.6l-0.7,1.6l-0.2,0.4l-0.2,0.4l-0.4,0.8l-0.4,0.8
			c-0.1,0.1-0.1,0.3-0.2,0.4l-0.2,0.4l-0.9,1.5c-1.3,1.9-2.9,3.6-4.6,5.1c-1.8,1.5-3.8,2.7-6,3.5l0-0.1l38,3.9h0
			c2.3-0.6,4.4-1.7,6.2-3.1c1.8-1.4,3.4-3.2,4.7-5.1c1.3-1.9,2.4-4,3.2-6.2c0.8-2.2,1.5-4.4,1.9-6.7l0.1,0.1L-2492.1,1628.5z"/>
		<path class="st2" d="M-2453,1631.9l-36-3.1l0,0l-3.1-0.3c-0.3,1.5-0.7,2.9-1.1,4.3l2.5,0.3l35.9,4l0,0l0.6,1.8l1.9-5.2
			L-2453,1631.9z"/>
		<g class="st6">
			<path class="st2" d="M-2487.4,1635.3c-0.2,0.7-0.5,1.4-0.7,2.1c-0.3,0.7-0.6,1.3-0.9,2c-0.7,1.3-1.4,2.6-2.3,3.8
				c-0.4,0.6-0.9,1.2-1.4,1.7c-0.5,0.6-1,1.1-1.6,1.6c-0.6,0.5-1.2,0.9-1.8,1.3c-0.6,0.4-1.3,0.7-2,0.9l0,0c1.3-0.6,2.6-1.4,3.6-2.4
				c1.1-1,2-2.1,2.8-3.3c0.8-1.2,1.6-2.4,2.3-3.7C-2488.6,1637.9-2488,1636.6-2487.4,1635.3L-2487.4,1635.3z"/>
			<path class="st2" d="M-2482.6,1636c-0.1,0.7-0.3,1.5-0.6,2.2c-0.3,0.7-0.6,1.4-0.9,2.1c-0.7,1.4-1.5,2.7-2.4,3.9
				c-0.9,1.2-2,2.3-3.3,3.2c-1.2,0.9-2.6,1.6-4,2.1l0,0l1-0.5l0.5-0.3l0.5-0.3l0.9-0.6l0.9-0.7c1.2-0.9,2.2-2,3.1-3.2
				c0.9-1.2,1.7-2.4,2.4-3.8C-2483.7,1638.8-2483.1,1637.5-2482.6,1636L-2482.6,1636z"/>
			<path class="st2" d="M-2477.5,1636.8c-0.1,0.7-0.3,1.4-0.6,2.2c-0.2,0.7-0.5,1.4-0.8,2.1c-0.6,1.4-1.4,2.6-2.3,3.8l-0.7,0.9
				l-0.8,0.8c-0.3,0.3-0.5,0.5-0.8,0.8c-0.3,0.3-0.6,0.5-0.9,0.7c-1.2,0.9-2.5,1.6-3.9,2.1l0,0l1-0.5l0.5-0.3l0.5-0.3
				c0.3-0.2,0.6-0.4,0.9-0.6l0.9-0.7c1.1-0.9,2.1-2,3-3.2c0.9-1.2,1.7-2.4,2.4-3.7C-2478.6,1639.5-2478,1638.2-2477.5,1636.8
				L-2477.5,1636.8z"/>
			<path class="st2" d="M-2472.7,1636.8c-0.1,0.8-0.2,1.5-0.4,2.3c-0.2,0.7-0.5,1.5-0.7,2.2c-0.6,1.4-1.3,2.8-2.2,4.1l-0.7,0.9
				l-0.8,0.9c-0.3,0.3-0.5,0.6-0.8,0.8c-0.3,0.3-0.6,0.5-0.9,0.7c-1.2,0.9-2.6,1.7-4.1,2.1l0,0l1-0.5l0.5-0.2l0.5-0.3
				c0.3-0.2,0.7-0.4,1-0.6l0.9-0.7c1.2-1,2.2-2.1,3.1-3.4c0.9-1.3,1.6-2.6,2.3-4C-2473.5,1639.7-2473,1638.3-2472.7,1636.8
				L-2472.7,1636.8z"/>
			<path class="st2" d="M-2467.6,1637.5c0,0.4-0.1,0.8-0.2,1.1c-0.1,0.4-0.2,0.8-0.3,1.1c-0.2,0.7-0.5,1.5-0.7,2.2
				c-0.6,1.4-1.4,2.8-2.3,4.1c-0.9,1.3-2.1,2.4-3.3,3.3c-1.3,0.9-2.7,1.6-4.1,2.1l0,0c1.4-0.6,2.7-1.4,4-2.3l0.5-0.3l0.4-0.4
				c0.3-0.3,0.6-0.5,0.8-0.8l0.8-0.9c0.3-0.3,0.5-0.6,0.7-0.9c0.9-1.2,1.7-2.5,2.3-3.9C-2468.4,1640.5-2467.9,1639-2467.6,1637.5
				L-2467.6,1637.5z"/>
			<path class="st2" d="M-2462.2,1637.9c-0.1,0.8-0.3,1.5-0.6,2.3c-0.2,0.7-0.5,1.5-0.9,2.2c-0.6,1.4-1.4,2.8-2.3,4.1
				c-0.9,1.3-2,2.4-3.2,3.4l-1,0.7c-0.2,0.1-0.3,0.2-0.5,0.3l-0.5,0.3l-0.5,0.3c-0.2,0.1-0.4,0.1-0.5,0.2c-0.4,0.1-0.7,0.3-1.1,0.4
				l0,0c1.4-0.6,2.7-1.4,3.9-2.4c1.2-1,2.2-2.1,3.1-3.4c0.9-1.3,1.7-2.6,2.4-4C-2463.3,1640.8-2462.7,1639.4-2462.2,1637.9
				L-2462.2,1637.9z"/>
			<path class="st2" d="M-2492.8,1637.5l4.2,0.3l4.2,0.4c2.8,0.3,5.5,0.6,8.3,0.9c2.8,0.3,5.5,0.7,8.3,1l4.1,0.6l4.1,0.6v0
				l-16.6-1.9L-2492.8,1637.5L-2492.8,1637.5z"/>
			<path class="st2" d="M-2494.1,1641l4.1,0.2l4.1,0.3c2.7,0.2,5.4,0.5,8.1,0.8c2.7,0.3,5.4,0.6,8.1,0.9l4.1,0.5l4,0.6v0l-16.3-1.7
				L-2494.1,1641L-2494.1,1641z"/>
			<path class="st2" d="M-2498.9,1647l4,0.3l4,0.3c2.6,0.2,5.3,0.5,7.9,0.8c2.6,0.3,5.3,0.6,7.9,0.9l3.9,0.5l3.9,0.6v0l-15.8-1.7
				L-2498.9,1647L-2498.9,1647z"/>
			<path class="st2" d="M-2495.9,1644.4l4,0.2l4,0.3c2.7,0.2,5.3,0.5,8,0.7c2.7,0.3,5.3,0.5,8,0.9l4,0.5l4,0.6v0l-16-1.5
				L-2495.9,1644.4L-2495.9,1644.4z"/>
		</g>
		<path class="st1" d="M-2457.3,1631.9c0-0.5-0.2-0.9-0.4-1.3c-0.2-0.4-0.5-0.7-0.9-0.8c-0.7-0.3-1.6-0.1-2.1,0.5
			c-0.2,0.3-0.4,0.7-0.4,1c0,0.4,0,0.7,0,1.1c0.1,0.8,0.7,1.5,1.5,1.8l0,0.1c-0.5,0.2-1.1,0.1-1.6-0.2c-0.5-0.3-0.9-0.8-1.1-1.3
			c-0.2-0.6-0.2-1.2,0-1.7c0.2-0.5,0.5-1,0.9-1.4c0.4-0.4,0.9-0.7,1.5-0.8c0.6-0.1,1.1,0.1,1.6,0.4c0.4,0.3,0.8,0.7,1,1.2
			c0.2,0.5,0.2,1,0.2,1.5H-2457.3z"/>
		<path class="st1" d="M-2466.6,1630.9c0-0.5-0.2-0.9-0.4-1.3c-0.2-0.4-0.5-0.7-0.9-0.8c-0.7-0.3-1.6-0.1-2.1,0.5
			c-0.2,0.3-0.4,0.7-0.4,1c0,0.4,0,0.7,0,1.1c0.1,0.8,0.7,1.5,1.5,1.8l0,0.1c-0.5,0.2-1.1,0.1-1.6-0.2c-0.5-0.3-0.9-0.8-1.1-1.3
			c-0.2-0.6-0.2-1.2,0-1.7c0.2-0.5,0.5-1,0.9-1.4c0.4-0.4,0.9-0.7,1.5-0.8c0.6-0.1,1.1,0.1,1.6,0.4c0.4,0.3,0.8,0.7,1,1.2
			c0.2,0.5,0.2,1,0.2,1.5L-2466.6,1630.9z"/>
		<path class="st1" d="M-2475.5,1630c0-0.5-0.2-0.9-0.4-1.3c-0.2-0.4-0.5-0.7-0.9-0.8c-0.7-0.3-1.6-0.1-2.1,0.5
			c-0.2,0.3-0.4,0.7-0.4,1c0,0.4,0,0.7,0,1.1c0.1,0.8,0.7,1.5,1.5,1.8l0,0.1c-0.5,0.2-1.1,0.1-1.6-0.2c-0.5-0.3-0.9-0.8-1.1-1.3
			c-0.2-0.6-0.2-1.2,0-1.7c0.2-0.5,0.5-1,0.9-1.4c0.4-0.4,0.9-0.7,1.5-0.8c0.6-0.1,1.1,0.1,1.6,0.4c0.4,0.3,0.8,0.7,1,1.2
			c0.2,0.5,0.2,1,0.2,1.5L-2475.5,1630z"/>
		<path class="st1" d="M-2484.7,1629c0-0.5-0.2-0.9-0.4-1.3c-0.2-0.4-0.5-0.7-0.9-0.8c-0.7-0.3-1.6-0.1-2.1,0.5
			c-0.2,0.3-0.4,0.7-0.4,1c0,0.4,0,0.7,0,1.1c0.1,0.8,0.7,1.5,1.5,1.8l0,0.1c-0.5,0.2-1.1,0.1-1.6-0.2c-0.5-0.3-0.9-0.8-1.1-1.3
			c-0.2-0.6-0.2-1.2,0-1.7c0.2-0.5,0.5-1,0.9-1.4c0.4-0.4,0.9-0.7,1.5-0.8c0.6-0.1,1.1,0.1,1.6,0.4c0.4,0.3,0.8,0.7,1,1.2
			c0.2,0.5,0.2,1,0.2,1.5L-2484.7,1629z"/>
		<path class="st1" d="M-2268.5,1687l18.1-3.5c0.7-0.1,1.4,0.3,1.6,1.1l2.8,14.2c0.1,0.3-0.1,0.5-0.4,0.6c0,0,0,0,0,0
			c-0.1,0-0.2,0-0.3,0l-3.8-1.7l-15.3,3c-0.7,0.1-1.4-0.3-1.6-1.1c0,0,0,0,0,0l0,0l-2.1-10.8
			C-2269.7,1687.9-2269.2,1687.2-2268.5,1687z"/>
		<path class="st2" d="M-2268.5,1687c3.3-0.6,6.6-1.4,9.9-2.1c1.6-0.3,3.3-0.7,4.9-1l2.5-0.5l0.6-0.1c0.2-0.1,0.5-0.1,0.7,0
			c0.5,0.1,0.9,0.4,1.1,0.8c0.1,0.2,0.2,0.4,0.2,0.7l0.1,0.6l0.2,1.2c0.1,0.8,0.3,1.7,0.4,2.5c0.3,1.6,0.6,3.3,0.9,4.9l0.5,2.5
			l0.3,1.2l0.1,0.6l0.1,0.3c0,0.1,0,0.3,0,0.4c-0.1,0.3-0.3,0.5-0.6,0.4c-0.1,0-0.2,0-0.4-0.1l-0.3-0.1l-1.2-0.5l-2.3-1l0.1,0
			l-7.6,1.5c-2.5,0.5-5.1,1-7.6,1.5c-0.2,0-0.4,0.1-0.5,0.1c-0.2,0-0.4-0.1-0.6-0.1c-0.4-0.2-0.7-0.4-0.8-0.8
			c-0.1-0.2-0.1-0.3-0.2-0.5l-0.1-0.5l-0.2-0.9c-0.2-1.3-0.4-2.5-0.6-3.8l-0.6-3.8c-0.1-0.6-0.2-1.3-0.3-1.9
			C-2269.6,1687.7-2269.2,1687.1-2268.5,1687z M-2268.5,1687.1c-0.6,0.1-1.1,0.7-1,1.4c0.1,0.6,0.2,1.3,0.4,1.9l0.8,3.8
			c0.3,1.3,0.6,2.5,0.8,3.8l0.2,0.9l0.1,0.5c0,0.1,0.1,0.3,0.1,0.4c0.1,0.2,0.3,0.4,0.6,0.5c0.1,0,0.2,0.1,0.4,0.1
			c0.1,0,0.3,0,0.4-0.1c2.5-0.5,5-1,7.6-1.5l7.6-1.4l0.1,0l0.1,0l2.3,1.1l1.1,0.5l0.3,0.1c0.1,0,0.2,0.1,0.2,0.1
			c0.1,0,0.3-0.1,0.3-0.2c0-0.1,0-0.2,0-0.2l-0.1-0.3l-0.1-0.6l-0.2-1.2l-0.5-2.5c-0.3-1.7-0.6-3.3-1-4.9c-0.2-0.8-0.3-1.6-0.5-2.5
			l-0.3-1.2l-0.1-0.6c0-0.2-0.1-0.4-0.2-0.5c-0.2-0.3-0.5-0.5-0.9-0.6c-0.2,0-0.4,0-0.6,0.1l-0.6,0.1l-2.5,0.5
			c-1.6,0.3-3.3,0.6-5,0.9C-2261.9,1685.9-2265.2,1686.4-2268.5,1687.1L-2268.5,1687.1z"/>
		<path class="st2" d="M-2252.3,1687.9l-3.2,0.7l-3.2,0.7c-1.1,0.2-2.1,0.5-3.2,0.7c-1.1,0.2-2.2,0.3-3.3,0.4l0-0.1
			c1-0.3,2.1-0.6,3.2-0.9c1.1-0.2,2.1-0.4,3.2-0.6l3.2-0.5L-2252.3,1687.9L-2252.3,1687.9z"/>
		<path class="st2" d="M-2251.7,1690.9l-3.2,0.7l-3.2,0.7c-1.1,0.2-2.1,0.5-3.2,0.7c-1.1,0.2-2.2,0.3-3.3,0.4l0-0.1
			c1-0.3,2.1-0.6,3.2-0.9c1.1-0.2,2.1-0.4,3.2-0.6l3.2-0.5L-2251.7,1690.9L-2251.7,1690.9z"/>
		<path class="st2" d="M-2251.1,1694.1l-3.2,0.7l-3.2,0.7c-1.1,0.2-2.1,0.5-3.2,0.7c-1.1,0.2-2.2,0.3-3.3,0.4l0-0.1
			c1-0.3,2.1-0.6,3.2-0.9c1.1-0.2,2.1-0.4,3.2-0.6l3.2-0.5L-2251.1,1694.1L-2251.1,1694.1z"/>
		<path class="st1" d="M-2260.9,1674.3l-25.3,4.9c-1,0.2-1.7,1.2-1.5,2.2l0,0l0,0l3.8,19.8c0.1,0.4,0.4,0.6,0.8,0.5c0,0,0,0,0,0
			c0.1,0,0.3-0.1,0.4-0.2l4.1-4.3l21.4-4.2c1-0.2,1.7-1.2,1.5-2.2l0,0l0,0l-2.9-15.1C-2258.9,1674.8-2259.9,1674.2-2260.9,1674.3
			L-2260.9,1674.3z"/>
		<path class="st2" d="M-2260.9,1674.4c-4.6,0.9-9.2,1.9-13.7,2.9c-2.3,0.5-4.6,1-6.9,1.4l-3.5,0.7l-0.9,0.2c-0.3,0-0.5,0.1-0.7,0.2
			c-0.4,0.2-0.7,0.7-0.8,1.2c0,0.3,0,0.5,0.1,0.8l0.2,0.9l0.3,1.7c0.2,1.2,0.4,2.3,0.6,3.5c0.4,2.3,0.8,4.6,1.3,6.9l0.7,3.4l0.4,1.7
			l0.2,0.9l0.1,0.4c0,0.1,0,0.1,0,0.2c0,0,0,0.1,0.1,0.1c0.1,0.2,0.4,0.2,0.5,0.1c0,0,0.1,0,0.1-0.1c0,0,0.1-0.1,0.1-0.1l0.3-0.3
			l1.2-1.3l2.4-2.6l0.1-0.1l0.1,0c3.5-0.7,7-1.4,10.6-2.1c3.5-0.7,7-1.4,10.6-2.1c0.2,0,0.4-0.1,0.6-0.1c0.2-0.1,0.3-0.2,0.4-0.3
			c0.3-0.3,0.4-0.6,0.4-0.9c0-0.1,0-0.2,0-0.3l0-0.1l0-0.2l-0.1-0.7l-0.2-1.3c-0.3-1.8-0.6-3.5-0.9-5.3l-0.9-5.3
			c-0.2-0.9-0.3-1.8-0.5-2.6c-0.1-0.4-0.4-0.8-0.8-1C-2260,1674.4-2260.5,1674.3-2260.9,1674.4z M-2260.9,1674.3
			c0.5-0.1,0.9,0,1.3,0.2c0.4,0.2,0.7,0.6,0.9,1c0.2,0.9,0.4,1.8,0.6,2.6l1.2,5.3c0.4,1.8,0.8,3.5,1.1,5.3l0.3,1.3l0.1,0.7l0,0.2
			l0,0.2c0,0.1,0,0.3,0,0.4c0,0.5-0.3,1.1-0.6,1.5c-0.2,0.2-0.4,0.3-0.7,0.5c-0.2,0.1-0.5,0.2-0.7,0.2c-3.5,0.7-7,1.4-10.6,2.1
			c-3.5,0.6-7.1,1.3-10.6,2l0.2-0.1l-2.5,2.5l-1.2,1.3l-0.3,0.3c-0.1,0.1-0.1,0.1-0.2,0.2c-0.1,0.1-0.2,0.1-0.2,0.2
			c-0.4,0.2-0.8,0.1-1-0.3c-0.1-0.1-0.1-0.2-0.1-0.2c0-0.1,0-0.2-0.1-0.2l-0.1-0.4l-0.2-0.9l-0.3-1.7l-0.6-3.5
			c-0.4-2.3-0.9-4.6-1.4-6.9c-0.2-1.1-0.5-2.3-0.7-3.4l-0.4-1.7l-0.2-0.9c-0.1-0.3-0.1-0.6-0.1-1c0.1-0.7,0.5-1.3,1.1-1.6
			c0.3-0.2,0.6-0.3,0.9-0.3l0.9-0.2l3.4-0.7c2.3-0.5,4.6-0.9,6.9-1.3C-2270.1,1676-2265.5,1675.2-2260.9,1674.3L-2260.9,1674.3z"/>
		<path class="st2" d="M-2281.4,1683.9l4.4-1l4.5-1c1.5-0.3,3-0.7,4.5-0.9c1.5-0.3,3-0.4,4.5-0.5l0,0.1c-1.4,0.5-2.9,0.9-4.4,1.2
			c-1.5,0.3-3,0.5-4.5,0.8l-4.5,0.8L-2281.4,1683.9L-2281.4,1683.9z"/>
		<path class="st2" d="M-2280.6,1688l4.4-1l4.5-1c1.5-0.3,3-0.7,4.5-0.9c1.5-0.3,3-0.4,4.5-0.5l0,0.1c-1.4,0.5-2.9,0.9-4.4,1.2
			c-1.5,0.3-3,0.5-4.5,0.8l-4.5,0.8L-2280.6,1688L-2280.6,1688z"/>
		<path class="st2" d="M-2279.7,1692.5l4.4-1l4.5-1c1.5-0.3,3-0.7,4.5-0.9c1.5-0.3,3-0.4,4.5-0.5l0,0.1c-1.4,0.5-2.9,0.9-4.4,1.2
			c-1.5,0.3-3,0.5-4.5,0.8l-4.5,0.8L-2279.7,1692.5L-2279.7,1692.5z"/>
	</g>
</g>
</svg>
